<?xml version="1.0" standalone="no"?><!DOCTYPE svg PUBLIC "-//W3C//DTD SVG 1.1//EN" "http://www.w3.org/Graphics/SVG/1.1/DTD/svg11.dtd"><svg t="1547110414634" class="icon" style="" viewBox="0 0 1024 1024" version="1.1" xmlns="http://www.w3.org/2000/svg" p-id="15342" xmlns:xlink="http://www.w3.org/1999/xlink" width="200" height="200"><defs><style type="text/css"></style></defs><path d="M780.94845 126.657741C710.026617 55.740424 615.700489 16.689615 515.44991 16.689615c-100.259611 0-194.508974 39.050809-265.426291 110.013282C179.142426 197.579574 140.118711 291.865062 140.118711 392.124673c0 78.638973 24.072602 153.868678 69.589734 217.624271 0.632182 1.192115 1.404348 2.321012 2.239732 3.33702l1.264364 1.580456c1.155991 1.539816 2.253279 3.020929 3.33702 4.420761 0.663792 0.799259 1.295974 1.684315 1.928157 2.533245l0.108374 0.094827 278.760823 366.205195a22.767597 22.767597 0 0 0 18.143635 8.981506 22.839847 22.839847 0 0 0 18.10751-8.945381l278.792433-366.24132c1.923641-2.420355 3.720845-4.836195 5.369034-7.048833l1.503691-1.855907c0.776681-0.948274 1.413379-2.004921 1.968797-3.020929 45.58035-63.827843 69.657468-139.025938 69.657468-217.664911-0.009031-100.259611-39.028231-194.545099-109.941033-265.466932z m-16.174838 440.807232a15.781982 15.781982 0 0 1-1.598518 2.447449l-1.223725 1.508207c-1.350161 1.788173-2.808696 3.752454-4.384636 5.707704l-227.007664 296.520633a18.64938 18.64938 0 0 1-14.756943 7.238488 18.563584 18.563584 0 0 1-14.77049-7.265582l-226.998633-296.489024-0.090312-0.085796c-0.514777-0.681854-1.029554-1.390801-1.566909-2.045562-0.885055-1.128897-1.774626-2.330044-2.718385-3.576346l-1.034069-1.282427a16.522538 16.522538 0 0 1-1.824298-2.695806c-37.06395-51.622208-56.661604-112.532981-56.661604-176.207294 0-81.167703 31.776196-157.499211 89.489932-214.89234 57.758892-57.447317 134.501319-89.069983 216.138643-89.069983 81.646355 0 158.452 31.622666 216.206376 89.038374 57.754377 57.420223 89.526057 133.756246 89.526058 214.919434 0.009031 63.674313-19.597654 124.553477-56.724823 176.229871z m-249.269515-274.001393c-71.946871 0-130.44632 58.494933-130.44632 130.437289 0 71.942356 58.499449 130.441804 130.44632 130.441804 71.93784 0 130.441804-58.499449 130.441804-130.441804 0-71.946871-58.503964-130.437289-130.441804-130.437289z m0 190.864894c-33.329559 0-60.427605-27.093531-60.427605-60.42309s27.098046-60.427605 60.427605-60.427605c33.320527 0 60.418574 27.093531 60.418574 60.427605 0 33.325043-27.098046 60.423089-60.418574 60.42309z m0 0" p-id="15343"></path></svg>