<?xml version="1.0" standalone="no"?><!DOCTYPE svg PUBLIC "-//W3C//DTD SVG 1.1//EN" "http://www.w3.org/Graphics/SVG/1.1/DTD/svg11.dtd"><svg t="1547110343255" class="icon" style="" viewBox="0 0 1024 1024" version="1.1" xmlns="http://www.w3.org/2000/svg" p-id="13590" xmlns:xlink="http://www.w3.org/1999/xlink" width="200" height="200"><defs><style type="text/css"></style></defs><path d="M868 621.1c-19.2 42.3-46.8 80.5-82 113.3-35.3 32.9-76.5 58.8-122.5 76.9-47.7 18.8-98.3 28.3-150.5 28.3-45.7 0-90.6-7.3-133.1-21.9-8.6-2.9-17.9-2-25.7 2.4l-100.5 57.1-15.9-135.3c-0.8-7-3.9-13.5-8.8-18.5-65-65.8-100.8-151.1-100.8-240.3 0-47.8 10.1-94.2 29.9-137.9 19.2-42.3 46.8-80.5 82-113.3 35.3-32.9 76.5-58.8 122.5-76.9 47.6-18.7 98.2-28.3 150.4-28.3s102.9 9.5 150.5 28.3c45.9 18.1 87.1 43.9 122.5 76.9 35.2 32.8 62.8 70.8 82 113.3 19.9 43.7 29.9 90.1 29.9 137.9 0 47.9-10.1 94.2-29.9 138z m57.4-302c-22.7-49.9-55.1-94.8-96.5-133.3-41.1-38.3-89-68.4-142.2-89.4-55-21.6-113.4-32.6-173.6-32.6-60.2 0-118.6 11-173.6 32.6-53.3 21-101.1 51.1-142.2 89.4-41.3 38.5-73.7 83.3-96.5 133.3-23.5 52-35.5 107.1-35.5 164 0 102.3 39.4 200 111.3 276.7l20.2 172c1.2 10.5 7.6 19.7 17.1 24.4 4.4 2.2 9.2 3.4 14.2 3.4 5.3 0 10.8-1.4 15.6-4.1l129.7-73.7c45 13.8 91.9 20.8 139.8 20.8 60.2 0 118.6-11 173.6-32.6 53.3-21 101.1-51.1 142.2-89.4 41.3-38.5 73.7-83.3 96.5-133.3 23.6-52 35.5-107.1 35.5-164-0.1-57-12.1-112.2-35.6-164.2z" p-id="13591"></path><path d="M513 435.5c-26.6 0-48.1 21.5-48.1 48.1s21.6 48.1 48.1 48.1 48.1-21.5 48.1-48.1-21.6-48.1-48.1-48.1zM705.5 435.5c-26.6 0-48.1 21.5-48.1 48.1s21.6 48.1 48.1 48.1 48-21.5 48.1-48.1c0-26.5-21.6-48.1-48.1-48.1zM320.6 435.5c-26.6 0-48.1 21.5-48.1 48.1s21.6 48.1 48.1 48.1c26.6 0 48.1-21.5 48.1-48.1s-21.5-48.1-48.1-48.1z" p-id="13592"></path></svg>