<?xml version="1.0" standalone="no"?><!DOCTYPE svg PUBLIC "-//W3C//DTD SVG 1.1//EN" "http://www.w3.org/Graphics/SVG/1.1/DTD/svg11.dtd"><svg t="1545900027568" class="icon" style="" viewBox="0 0 1024 1024" version="1.1" xmlns="http://www.w3.org/2000/svg" p-id="4083" xmlns:xlink="http://www.w3.org/1999/xlink" width="200" height="200"><defs><style type="text/css"></style></defs><path d="M545.651 733.156c-33.891 30.031-66.608 59.026-95.184 87.438-29.958-29.792-64.149-59.854-99.599-90.967-97.318-85.427-207.604-182.251-207.058-261.814 0.75-106.801 47.545-170.561 125.231-170.561 50.579 0 100.379 27.528 129.945 71.834l52.381 78.479 50.609-79.649c19.722-30.943 51.201-53.978 86.041-64.575l0-63.472c-54.354 11.451-105.817 44.589-137.906 95.086-42.329-63.429-112.988-99.178-181.07-99.178-95.244 0-185.568 69.88-186.677 231.601C81.25 627.715 344.956 780.343 450.529 911.64c100.523-125.942 366.636-285.595 367.325-444.35l-61.554 0C755.794 546.854 639.342 650.071 545.651 733.156L545.651 733.156zM545.651 733.156" p-id="4084"></path><path d="M756.523 421.325c-4.429 0-8.844-1.641-12.212-4.936l-101.541-99.091c-6.745-6.588-14.998-29.196-1.662-43.642 15.991-17.322 37.707-8.257 44.452-1.667l73.345 74.047 157.806-155.728c6.747-6.589 29.916-15.156 43.463-1.294 13.212 13.519 1.686 38.921-5.06 45.51L768.737 416.389C765.358 419.684 760.94 421.325 756.523 421.325L756.523 421.325 756.523 421.325zM756.523 421.325" p-id="4085"></path></svg>