<?xml version="1.0" standalone="no"?><!DOCTYPE svg PUBLIC "-//W3C//DTD SVG 1.1//EN" "http://www.w3.org/Graphics/SVG/1.1/DTD/svg11.dtd"><svg t="1546508563816" class="icon" style="" viewBox="0 0 1024 1024" version="1.1" xmlns="http://www.w3.org/2000/svg" p-id="19108" xmlns:xlink="http://www.w3.org/1999/xlink" width="200" height="200"><defs><style type="text/css"></style></defs><path d="M1010.688 377.856l-1.024-4.096-155.648-256c-10.24-24.576-33.792-39.936-60.416-39.936H236.544c-26.624 0-50.176 16.384-60.416 39.936L20.48 373.76v4.096c-8.192 25.6 0 52.224 19.456 69.632l434.176 517.12 4.096 3.072c11.264 8.192 24.576 12.288 37.888 12.288 13.312 0 26.624-4.096 37.888-12.288l4.096-3.072 434.176-517.12c18.432-16.384 26.624-44.032 18.432-69.632zM515.072 899.072l-421.888-501.76 149.504-245.76h544.768l149.504 245.76-421.888 501.76z" fill="#1296db" p-id="19109"></path><path d="M659.456 354.304h-71.68c15.36-5.12 29.696-14.336 44.032-28.672 34.816-34.816 43.008-80.896 19.456-104.448-23.552-23.552-69.632-15.36-104.448 19.456-15.36 15.36-25.6 33.792-29.696 51.2-4.096-17.408-14.336-34.816-29.696-51.2-34.816-34.816-80.896-43.008-104.448-19.456-23.552 23.552-15.36 69.632 19.456 104.448 13.312 13.312 28.672 22.528 44.032 28.672h-73.728c-15.36 0-27.648 12.288-27.648 27.648v81.92c0 15.36 12.288 27.648 27.648 27.648h109.568c15.36 0 27.648-12.288 27.648-27.648v-81.92c0-12.288-8.192-22.528-18.432-25.6 6.144-2.048 12.288-6.144 16.384-10.24 5.12-5.12 8.192-11.264 11.264-18.432 2.048 7.168 5.12 13.312 11.264 18.432 4.096 4.096 9.216 8.192 15.36 10.24-11.264 3.072-20.48 13.312-20.48 26.624v81.92c0 15.36 12.288 27.648 27.648 27.648h109.568c15.36 0 27.648-12.288 27.648-27.648v-81.92c-3.072-16.384-15.36-28.672-30.72-28.672z m-173.056-28.672c-7.168 7.168-19.456 6.144-25.6 4.096-13.312-3.072-27.648-11.264-39.936-23.552s-20.48-26.624-23.552-39.936c-1.024-6.144-3.072-18.432 4.096-25.6 4.096-4.096 10.24-5.12 15.36-5.12 4.096 0 7.168 1.024 10.24 1.024 13.312 3.072 27.648 11.264 39.936 23.552 12.288 12.288 20.48 26.624 23.552 39.936 1.024 6.144 3.072 18.432-4.096 25.6z m79.872-65.536c12.288-12.288 26.624-20.48 39.936-23.552 3.072-1.024 6.144-1.024 10.24-1.024 5.12 0 11.264 1.024 15.36 5.12 11.264 11.264 5.12 39.936-19.456 65.536-24.576 24.576-54.272 29.696-65.536 19.456-10.24-11.264-5.12-39.936 19.456-65.536zM659.456 503.808H549.888c-15.36 0-27.648 12.288-27.648 27.648v81.92c0 15.36 12.288 27.648 27.648 27.648h109.568c15.36 0 27.648-12.288 27.648-27.648v-81.92c0-16.384-12.288-27.648-27.648-27.648zM480.256 503.808H370.688c-15.36 0-27.648 12.288-27.648 27.648v81.92c0 15.36 12.288 27.648 27.648 27.648h109.568c15.36 0 27.648-12.288 27.648-27.648v-81.92c0-16.384-12.288-27.648-27.648-27.648z" fill="#1296db" p-id="19110"></path></svg>