<?xml version="1.0" standalone="no"?><!DOCTYPE svg PUBLIC "-//W3C//DTD SVG 1.1//EN" "http://www.w3.org/Graphics/SVG/1.1/DTD/svg11.dtd"><svg t="1547110624583" class="icon" style="" viewBox="0 0 1024 1024" version="1.1" xmlns="http://www.w3.org/2000/svg" p-id="19336" xmlns:xlink="http://www.w3.org/1999/xlink" width="200" height="200"><defs><style type="text/css"></style></defs><path d="M898.005172 547.519772c1.130666-11.754662 1.834666-23.55199 1.834666-35.519985 0-11.967995-0.704-23.765323-1.834666-35.519986l90.133296-71.210637a51.007979 51.007979 0 0 0 12.031995-65.151972l-96.12796-168.042597a50.901312 50.901312 0 0 0-62.997307-22.101324l-105.621289 42.901315a379.775842 379.775842 0 0 0-60.522642-35.583985l-16.021326-114.047952a51.327979 51.327979 0 0 0-50.389313-43.263982h-192.298586c-25.237323 0-46.442647 18.154659-50.431979 43.647981l-15.957327 113.663953a383.978507 383.978507 0 0 0-60.586641 35.583985L183.31747 149.802604c-22.805324-8.831996-50.431979 0.917333-62.613307 22.271991l-96.12796 167.99993a51.157312 51.157312 0 0 0 12.351995 65.471973l89.749296 70.933303A368.98118 368.98118 0 0 0 124.842828 511.999787c0 11.967995 0.704 23.80799 1.834666 35.519985l-90.239963 71.189304a51.157312 51.157312 0 0 0-11.861328 65.109306l96.170627 168.170596a51.093312 51.093312 0 0 0 62.95464 21.973325l105.621289-42.901316c19.413325 13.909328 39.701317 25.834656 60.522642 35.519985l16.021327 114.218619a50.794646 50.794646 0 0 0 50.325312 43.221316h192.25592c24.917323 0 46.549314-18.581326 50.495979-43.647982l15.957326-113.727953a382.677174 382.677174 0 0 0 60.522642-35.583985l105.898622 43.135982a51.199979 51.199979 0 0 0 62.719974-22.271991l95.978627-167.93593c12.565328-21.674658 7.70133-49.15198-12.309328-65.706639l-89.70663-70.762637zM861.333188 824.106323l-119.701284-48.661313a26.709322 26.709322 0 0 0-26.709322 3.669332 327.65853 327.65853 0 0 1-75.071969 44.031982 27.178655 27.178655 0 0 0-16.362659 21.183991l-17.621326 125.845281-186.709256 2.751999-18.005326-128.59728a27.093322 27.093322 0 0 0-16.341326-21.183991 330.517196 330.517196 0 0 1-75.093302-44.031982 26.815989 26.815989 0 0 0-26.645323-3.605332l-115.498618 49.749313-97.15196-164.607932 101.525291-80.0853c7.44533-5.887998 11.221329-15.253327 10.026663-24.639989A329.023863 329.023863 0 0 1 178.794806 511.999787c0-14.869327 1.237333-29.482654 3.135998-43.818649a26.773322 26.773322 0 0 0-10.047996-24.639989l-100.479958-76.693302 91.967962-166.97593 119.594617 48.618646c8.895996 3.647998 19.071992 2.282666 26.687989-3.605332a336.06386 336.06386 0 0 1 75.242635-44.202648c8.810663-3.669332 14.95466-11.690662 16.29866-21.119991l14.997327-125.695948 189.333254-2.751999 18.02666 128.554613c1.279999 9.429329 7.551997 17.450659 16.341326 21.119992a331.327862 331.327862 0 0 1 75.135969 44.095981c7.658663 5.866664 17.813326 7.274664 26.709322 3.669332l115.498618-49.706646 97.194627 164.501265-101.567958 80.191967a27.029322 27.029322 0 0 0-10.090662 24.597323c1.834666 14.442661 3.178665 29.034655 3.178665 43.925315 0 14.869327-1.301333 29.461321-3.178665 43.925315-1.194666 9.365329 2.645332 18.687992 10.090662 24.575989l100.437291 76.586635-91.967961 166.954597zM512.426666 308.799871c-111.231954 0-201.685249 91.135962-201.685249 203.199916 0 111.999953 90.453296 203.178582 201.685249 203.178582s201.642583-91.135962 201.642583-203.178582c0-112.063953-90.474629-203.199915-201.642583-203.199916z m0 352.49052c-81.450633 0-147.754605-66.922639-147.754605-149.290604s66.303972-149.290604 147.754605-149.290605 147.690605 66.986639 147.690606 149.290605-66.282639 149.290604-147.690606 149.290604z" p-id="19337"></path></svg>