<?xml version="1.0" standalone="no"?><!DOCTYPE svg PUBLIC "-//W3C//DTD SVG 1.1//EN" "http://www.w3.org/Graphics/SVG/1.1/DTD/svg11.dtd"><svg t="1547110761925" class="icon" style="" viewBox="0 0 1024 1024" version="1.1" xmlns="http://www.w3.org/2000/svg" p-id="22625" xmlns:xlink="http://www.w3.org/1999/xlink" width="200" height="200"><defs><style type="text/css"></style></defs><path d="M1009.335014 660.923355c-17.472983-14.799986-43.640957-12.652988-58.439943 4.828995L733.247284 922.656099l-93.728909-86.875915c-16.794984-15.579985-43.033958-14.557986-58.592942 2.226998-15.568985 16.793984-14.566986 43.022958 2.226998 58.592942l125.526877 116.344887a41.43496 41.43496 0 0 0 28.182972 11.054989c0.829999 0 1.659998-0.021 2.499998-0.071a41.46496 41.46496 0 0 0 29.134972-14.586986l245.66776-289.976717c14.798986-17.472983 12.642988-43.640957-4.829996-58.441942z" p-id="22626"></path><path d="M512.0005 0.006C229.233776 0.006 0.007 229.232776 0.007 511.9995c0 282.763724 229.226776 511.9935 511.9935 511.9935 3.207997 0 6.406994-0.04 9.601991-0.099 2.100998-0.038 4.197996-0.09 6.291993-0.153 14.792986-1.906998 26.224974-14.539986 26.224975-29.851971 0-16.298984-12.952987-29.563971-29.125972-30.08497a468.480542 468.480542 0 0 1-12.991987 0.188c-61.04494 0-120.232883-11.941988-175.916828-35.494966-53.816947-22.762978-102.1609-55.360946-143.69086-96.891905-41.528959-41.527959-74.127928-89.873912-96.889905-143.68786C71.94893 632.231383 60.006941 573.04544 60.006941 511.9995c0-61.04494 11.941988-120.233883 35.495966-175.916828 22.761978-53.816947 55.360946-102.1609 96.889905-143.69086 41.529959-41.529959 89.873912-74.127928 143.69086-96.889905 55.684946-23.552977 114.871888-35.495965 175.916828-35.495966S632.232383 71.94893 687.919328 95.501907c53.813947 22.761978 102.1589 55.359946 143.68786 96.888905 41.528959 41.530959 74.127928 89.874912 96.890905 143.69186 23.553977 55.683946 35.494965 114.872888 35.494966 175.916828 0 13.298987-0.566999 26.508974-1.696999 39.614961-0.095 1.097999-0.201 2.191998-0.303999 3.288997-0.016 0.396-0.03 0.790999-0.03 1.189999 0 16.628984 13.479987 30.108971 30.10897 30.108971 14.520986 0 26.639974-10.27999 29.478971-23.958977a518.915493 518.915493 0 0 0 2.442998-50.243951C1023.993 229.232776 794.765224 0.006 512.0005 0.006z" p-id="22627"></path><path d="M300.048707 500.073512c7.495993-9.333991 7.916992-27.573973 0.864999-37.532964-7.376993-10.41299-11.080989-14.722986-26.757974-25.937974-14.092986-10.08299-29.689971-17.503983-41.702959-22.842978-0.472-0.21-1.124999-0.5-1.664998-0.756999l0.031-0.337c0.826999-8.670992 1.899998-18.951981 3.584996-29.454971 2.851997-17.774983 8.799991-35.722965 19.286981-58.195943 6.774993-14.523986 16.223984-28.979972 30.63597-46.873955 0.829999-1.030999 1.394999-1.633998 1.764999-1.984998 0.797999 0.288 1.596998 0.585999 2.429997 0.897999 2.874997 1.074999 6.133994 2.292998 9.758991 3.124997 3.295997 0.754999 7.192993 1.701998 11.104989 3.003997 3.187997 1.060999 6.094994 1.576998 8.887991 1.576999 3.952996 0 7.619993-1.060999 10.90099-3.153997 3.294997-2.101998 6.112994-5.112995 9.136991-9.76399 2.111998-3.245997 4.611995-6.513994 7.632992-9.977991a9.011991 9.011991 0 0 0 1.108999-1.580998c2.888997-5.225995 1.938998-9.260991 0.633999-11.726989-2.875997-5.429995-8.776991-5.972994-10.993989-6.176994l-0.205-0.019c-4.266996-0.402-8.707991-1.067999-13.580986-2.036998-8.181992-1.626998-16.455984-3.865996-24.918976-6.208994-1.203999-0.333-2.701997-0.908999-4.299996-1.523998-3.932996-1.509999-8.826991-3.389997-14.084986-3.389997-2.820997 0-5.500995 0.538999-7.967992 1.601999-4.439996 1.915998-7.292993 5.164995-9.598991 7.789992-0.452 0.515999-0.897999 1.026999-1.353999 1.508999-0.821999 0.870999-1.646998 1.716998-2.519997 2.613997-2.727997 2.796997-5.546995 5.689994-8.176992 9.269991-2.002998 2.728997-4.249996 5.479995-6.483994 8.215992-2.999997 3.672996-6.100994 7.471993-8.946991 11.630989-4.764995 6.960993-9.257991 14.369986-13.734987 22.647977-23.047977 42.596958-34.308966 87.222915-33.469967 132.638871 0.299 16.143984 16.246984 22.600978 26.794974 26.871974l0.102 0.042c2.016998 0.818999 3.921996 1.592998 5.381995 2.294997 19.537981 9.412991 27.835973 14.137986 44.215956 30.191971 1.911998 1.872998 3.854996 3.475997 5.737995 5.028995 1.672998 1.377999 3.253997 2.679997 4.643995 4.052996 0.299 0.295 0.850999 0.941999 1.347999 1.523999 2.852997 3.341997 7.164993 8.392992 13.887986 8.394991h0.001c4.004996-0.001 7.764992-1.934998 10.58499-5.446994z" p-id="22628"></path><path d="M837.847182 398.625611c-0.26-2.883997-0.527999-5.866994-0.667-8.725992-0.298-5.971994-1.261999-12.421988-2.864997-19.167981-3.016997-12.714988-5.851994-23.093977-8.922991-32.663968-6.058994-18.887982-14.453986-36.819964-25.663975-54.822947-4.324996-6.941993-9.078991-13.615987-13.675987-20.07098l-0.128-0.179a774.917243 774.917243 0 0 1-6.191993-8.765991 8.956991 8.956991 0 0 0-1.558999-1.715999 73.123929 73.123929 0 0 0-2.128998-1.728998c-1.683998-1.328999-2.983997-2.394998-3.155997-3.042997a9.113991 9.113991 0 0 0-4.335996-5.566994 9.015991 9.015991 0 0 0-7.901992-4.642996h-4.663995a9.031991 9.031991 0 0 0-6.762994 3.034997c-0.224 0.108-0.457 0.229-0.694999 0.364-1.588998 0.906999-3.056997 1.853998-4.475996 2.769997l-0.115 0.074c-3.281997 2.124998-6.117994 3.958996-8.930991 4.321996a9.029991 9.029991 0 0 0-2.883997 0.880999l-2.344998 1.172999a9.089991 9.089991 0 0 0-2.120998 1.477998c-1.222999 1.144999-3.766996 1.725998-6.459993 2.341998-0.822999 0.188-1.638998 0.375-2.437998 0.577999-1.306999 0.33-2.623997 0.697999-3.939996 1.067999-3.501997 0.982999-6.809993 1.912998-9.634991 1.912999a10.21999 10.21999 0 0 1-2.027998-0.188c-10.51599-2.092998-18.425982-4.102996-25.649975-6.516994-3.581997-1.195999-7.199993-2.295998-10.767989-3.379997-8.659992-2.632997-16.840984-5.119995-24.413976-8.944991a9.111991 9.111991 0 0 0-2.149998-0.761999c-8.654992-1.880998-16.260984-4.640995-23.230977-8.423992a8.959991 8.959991 0 0 0-2.691998-0.957999c-5.689994-1.049999-11.257989-3.352997-17.170983-5.797994-2.295998-0.950999-4.896995-2.027998-7.498993-3.008997-1.712998-0.644999-3.396997-1.194999-5.025995-1.726999l-0.113-0.037c-3.815996-1.243999-7.111993-2.318998-9.62799-4.155996a8.998991 8.998991 0 0 0-5.100995-1.736998 9.059991 9.059991 0 0 0-6.270994-2.334998c-6.469994-3.478997-13.032987-5.173995-20.017981-5.173995-2.243998 0-4.547996 0.186-6.844993 0.553-3.928996 0.626999-8.104992 0.992999-12.160988 1.347999-4.135996 0.364-8.411992 0.739999-12.715988 1.396998-14.134986 2.158998-25.956975 3.892996-37.203963 5.454995-2.887997 0.401-5.779994 0.780999-8.675992 1.159999-6.334994 0.828999-12.886987 1.686998-19.439981 2.795997l-3.982996 0.675999c-12.650988 2.151998-25.731975 4.377996-38.448962 5.451995-14.001986 1.180999-25.091975 6.707993-34.901966 17.389983l-1.844999 2.007998a4450.665654 4450.665654 0 0 0-17.467983 19.090981 11.213989 11.213989 0 0 0-3.801996 4.268996 9.159991 9.159991 0 0 0-0.615999 1.545999c-0.37 0.445-1.765998 1.427999-2.523998 1.961998a8.967991 8.967991 0 0 0-1.961998 1.876998c-7.855992 10.18999-17.639983 20.17298-29.909971 30.51997-2.047998 1.723998-6.582994 6.654994-4.480995 15.180985 2.106998 8.560992 6.963993 15.839985 14.043986 21.04898 18.926982 13.926986 36.298965 20.69798 53.108948 20.69798 0.655999 0 1.310999-0.011 1.981998-0.031 13.614987-0.44 33.818967-5.528995 48.041953-12.099989 7.295993-3.371997 14.576986-8.023992 21.653979-12.546987 5.904994-3.774996 12.011988-7.678993 17.794983-10.58299 1.703998-0.855999 3.042997-1.876998 4.034996-2.632997l0.075-0.057c9.190991 1.737998 18.387982 2.547998 27.298973 3.332996 3.180997 0.28 6.785993 0.596999 10.27399 0.957999 2.898997 0.301 5.855994 0.669999 8.736992 1.029999 5.884994 0.732999 11.970988 1.491999 18.202982 1.771999 0.453 0.021 0.927999 0.03 1.491998 0.04 0.800999 0.015 2.116998 0.04 2.609998 0.182 7.394993 4.896995 12.289988 8.081992 17.912982 11.728988 3.897996 2.530998 8.028992 5.212995 13.624987 8.883991 13.630987 8.943991 22.304978 14.762986 31.486969 20.92198l0.495 0.333c6.842993 4.588996 13.917986 9.333991 23.664977 15.795984 3.576997 2.370998 7.158993 4.735995 10.739989 7.100993l2.537998 1.675999c15.630985 10.31499 31.793969 20.98098 47.327953 31.874969 14.319986 10.04199 28.671972 20.64298 42.550959 30.894969l0.223 0.164c4.110996 3.035997 8.219992 6.069994 12.331988 9.093991a2326.487728 2326.487728 0 0 0 7.140993 5.236995c1.505999 1.099999 3.027997 2.171998 4.551995 3.245997l0.311 0.219c6.609994 4.645995 12.853987 9.032991 16.988983 15.133985 2.663997 3.937996 1.402999 11.405989-0.769999 13.829987-1.502999 1.672998-4.483996 2.797997-7.430993 2.797997-1.872998 0-3.710996-0.447-5.312994-1.291999-12.473988-6.581994-26.103975-13.918986-42.895959-23.090977-15.480985-8.451992-28.492972-15.615985-41.673959-23.112978-3.814996-2.166998-7.760992-4.285996-11.240989-6.154994-6.121994-3.288997-12.452988-6.688993-18.314982-10.39399-5.317995-3.359997-11.702989-7.071993-18.741982-9.135991a21.415979 21.415979 0 0 0-6.012994-0.885999c-8.869991 0-16.366984 5.879994-20.05398 15.729985-3.360997 8.988991 1.346999 20.38698 10.716989 25.946974 2.996997 1.779998 6.024994 3.348997 8.952992 4.865996l0.089999 0.046c2.124998 1.099999 4.321996 2.236998 6.389994 3.400996a4878.489236 4878.489236 0 0 0 80.573921 44.326957c6.621994 3.565997 12.316988 7.012993 14.940986 13.086987 2.120998 4.912995-0.094 10.982989-3.464997 14.016987-1.826998 1.645998-3.955996 2.517998-6.155994 2.517997-1.668998 0-3.437997-0.47-5.259995-1.395999-14.186986-7.208993-26.658974-13.773987-38.131962-20.06998-11.275989-6.191994-22.708978-12.576988-33.766967-18.751982l-0.231-0.13c-11.557989-6.455994-21.984979-12.272988-32.560968-18.087982a20.17998 20.17998 0 0 0-9.695991-2.465997c-8.129992 0-15.833985 4.735995-19.625981 12.066988-5.480995 10.60999-1.400999 24.222976 8.904992 29.724971 2.590997 1.385999 5.184995 2.767997 7.776992 4.149996l3.850996 2.053998c13.907986 7.410993 29.671971 15.811985 44.607957 24.053976 8.997991 4.967995 15.395985 9.654991 19.484981 17.659983 1.666998 3.269997 1.158999 8.618992-1.183999 12.445988-1.411999 2.309998-4.034996 5.062995-8.440992 4.492995l-1.507998-0.188999c-4.584996-0.575999-8.206992-1.031999-11.271989-2.693998l-2.305998-1.250999c-6.330994-3.434997-12.877987-6.985993-19.440981-10.344989-5.277995-2.702997-10.871989-5.498995-15.365985-7.745993-8.371992-4.185996-17.028983-8.513992-25.505975-13.036987-3.662996-1.951998-7.696992-2.983997-11.666989-2.983997-7.638993 0-14.090986 3.614996-17.705983 9.92299-3.423997 5.988994-4.363996 12.544988-2.645997 18.459982 1.603998 5.518995 5.437995 10.11399 10.794989 12.939987 2.670997 1.407999 5.378995 2.877997 8.011993 4.306996l0.698999 0.38c7.597993 4.121996 15.453985 8.384992 23.643977 11.983988 5.963994 2.624997 9.302991 6.870993 10.825989 13.765987 0.515999 2.344998-0.407 4.445996-2.742997 6.246994-1.735998 1.338999-3.219997 2.017998-4.406996 2.017998-0.575999 0-1.164999-0.144-1.860998-0.454a3364.572714 3364.572714 0 0 0-14.629986-6.443994c-9.92299-4.351996-20.18298-8.850991-30.13797-13.475987-1.560998-0.722999-3.665996-1.551998-6.123994-1.551998-4.595996 0-8.093992 2.499998-10.40199 7.441993-1.475999 3.169997-3.191997 6.472994-4.708995 9.392991l-0.398 0.768999c-0.566999 1.094999-1.134999 2.187998-1.692998 3.285997-2.069998 4.059996-2.341998 8.471992-0.766 12.423987 3.267997 8.191992 12.950987 11.617989 20.071981 14.137987 1.314999 0.465 2.805997 0.991999 3.460996 1.301998 2.978997 1.400999 6.033994 2.976997 9.006992 4.509996 11.868988 6.118994 24.142976 12.445988 39.290961 12.445988 0.655999 0 1.314999-0.012 1.983998-0.037 11.499989-0.429 21.703979-4.475996 28.721972-11.381989a47.538954 47.538954 0 0 1 1.864998-1.695998c1.564998-1.375999 3.340997-2.934997 5.058995-5.144995 5.310995-6.835993 8.992991-15.443985 10.41899-24.320977l0.717 0.209c2.548998 0.748999 4.956995 1.455999 7.241992 1.557999 0.786999 0.034 1.581998 0.052 2.369998 0.052 15.203985 0 29.904971-6.384994 39.325962-17.080984 5.430995-6.170994 9.295991-12.355988 11.814988-18.910981 1.566998-4.070996 2.183998-8.040992 2.535998-11.754989 4.458996 0.848999 9.112991 1.152999 14.092986 0.917999 16.774984-0.783999 30.075971-7.899992 39.531961-21.147979 6.719993-9.403991 10.38799-18.619982 11.131989-28.020973 2.474998-0.209 4.791995-0.647999 6.895994-1.046999l0.395999-0.074c4.920995-0.929999 9.211991-2.116998 13.120988-3.630996a46.427955 46.427955 0 0 0 7.617992-3.763996c7.468993-4.607996 13.513987-11.345989 17.481983-19.482981 3.525997-7.237993 5.610995-14.383986 6.195994-21.23598 0.812999-9.499991-0.569999-18.945981-4.001996-27.316973a68.278933 68.278933 0 0 0-12.349988-19.695981c-1.734998-1.937998-3.572997-3.613996-5.412995-5.119995 2.138998-1.550998 3.399997-2.159998 4.486996-2.195997a9.205991 9.205991 0 0 0 3.725996-0.946l4.685996-2.340997a9.459991 9.459991 0 0 0 1.646998-1.065999c3.601996-2.931997 8.184992-4.630995 13.456987-6.585994l0.303-0.11a9.062991 9.062991 0 0 0 3.417996-2.261997c0.795999-0.839999 2.685997-1.630998 4.519996-2.399998l0.162-0.068c0.911999-0.384 1.854998-0.779999 2.833997-1.244999 7.569993-3.583997 8.819991-9.244991 9.063991-13.774986 0.352-6.455994-0.2-12.598988-0.733999-18.539982zM527.770485 244.962761l0.541999 4.971995c4.605996-0.405 9.365991-0.822999 14.625986-1.635998a36.467964 36.467964 0 0 0 7.845992 3.494996 40.68896 40.68896 0 0 0 6.947993 2.526998c4.983995 2.475998 9.488991 3.944996 13.130988 5.131995l0.132999 0.043c1.136999 0.371 2.312998 0.753999 3.127997 1.062999 1.918998 0.722999 4.048996 1.603998 6.194994 2.491997 5.891994 2.439998 12.550988 5.197995 20.37598 7.175993 8.053992 3.925996 16.776984 7.069993 25.941975 9.351991 9.611991 4.407996 19.058981 7.275993 27.400973 9.80999l0.134 0.041c3.322997 1.010999 6.460994 1.964998 9.448991 2.962997 9.041991 3.020997 18.593982 5.466995 30.96797 7.929993a54.212947 54.212947 0 0 0 10.593989 1.032999c8.863991 0 16.186984-2.057998 21.522979-3.557997l0.352-0.098c0.880999-0.246 1.706998-0.477 2.405998-0.654999 0.422-0.105 0.852999-0.203 1.371998-0.322l0.139-0.031c4.319996-0.988999 11.475989-2.625997 18.903982-7.179993 0.306-0.096 0.609999-0.195 0.913999-0.295999 4.220996 5.921994 8.207992 11.542989 11.733988 17.202983 9.282991 14.907985 16.195984 29.640971 21.13298 45.039956 2.719997 8.470992 5.266995 17.812983 8.013992 29.397971 0.988999 4.162996 1.570998 7.932992 1.730998 11.206989 0.13 2.626997 0.319 5.084995 0.526 7.477993-3.362997 1.483999-7.455993 3.521997-11.641989 6.300994-3.915996 1.081999-7.770992 2.682997-11.478989 4.766995-5.310995 1.418999-10.18899 3.654996-14.521986 6.654994l-7.012993 2.732997c-12.591988-9.296991-26.649974-19.649981-40.52996-29.387971-16.022984-11.234989-32.429968-22.062978-48.296953-32.534969l-1.069999-0.704999c-4.063996-2.682997-8.129992-5.365995-12.187988-8.056992-9.560991-6.337994-16.536984-11.016989-23.365977-15.595985l-0.566-0.379c-9.290991-6.232994-18.066982-12.120988-31.884969-21.186979a2938.73013 2938.73013 0 0 0-13.541986-8.831991l-0.47-0.303a2016.89703 2016.89703 0 0 1-17.492983-11.457989c-10.71799-7.099993-21.333979-7.296993-25.865974-7.380993l-0.412-0.008c-4.502996-0.206-9.453991-0.822999-14.694986-1.476998l-0.148-0.019c-3.035997-0.379-6.175994-0.770999-9.47699-1.110999a698.412318 698.412318 0 0 0-10.62699-0.995999l-0.321-0.029c-8.616992-0.757999-16.754984-1.473999-24.102976-2.954997a40.063961 40.063961 0 0 0-7.923992-0.793999c-8.827991 0-17.204983 2.901997-24.904976 8.627991-7.021993 3.672996-13.474987 7.797992-19.734981 11.798989-6.074994 3.883996-11.811988 7.552993-16.423984 9.68399-8.615992 3.980996-23.423977 7.832992-31.036969 8.078992-3.308997 0.084-6.913993-0.651999-11.00099-2.306997a209.574795 209.574795 0 0 0 9.286991-10.68499c4.069996-3.327997 7.320993-6.952993 9.917991-11.057989 5.826994-6.416994 11.844988-12.965987 17.164983-18.755982l1.761998-1.917998c2.411998-2.625997 3.689996-3.143997 6.307994-3.363997 14.582986-1.230999 28.595972-3.616996 42.149959-5.923994l3.911996-0.665999c5.750994-0.971999 11.617989-1.739998 17.835983-2.553998l0.401999-0.053c2.810997-0.369 5.705994-0.747999 8.595992-1.149999 11.305989-1.569998 23.314977-3.330997 37.791963-5.540994 2.898997-0.442 6.293994-0.741999 9.88799-1.058999l-0.438999-4.979995z" p-id="22629"></path><path d="M521.603491 609.417405a121.283882 121.283882 0 0 0 3.595996-5.937994c2.557998-4.534996 4.456996-8.783991 5.806994-12.987988 1.538998-4.730995 2.322998-9.149991 2.396998-13.506986 0.133-5.621995-1.092999-10.934989-3.542996-15.363985-1.458999-2.626997-3.568997-5.074995-6.106994-7.083994-1.699998-1.308999-3.596996-2.359998-5.794995-3.213996-3.248997-2.826997-6.362994-4.858995-9.79199-6.393994-4.055996-1.813998-8.326992-2.733997-12.692988-2.733997-0.969999 0-1.886998 0.044-2.892997 0.138999-0.802999 0.084-1.632998 0.206-2.472998 0.363a28.389972 28.389972 0 0 0-1.089999-5.615994l-0.069999-0.224c-1.063999-3.239997-2.653997-6.040994-4.728996-8.324992a21.375979 21.375979 0 0 0-5.822994-4.437996c-3.007997-3.161997-5.969994-5.482995-9.311991-7.299993-4.270996-2.356998-9.024991-3.603996-13.750987-3.603996-0.772999 0-1.602998 0.036-2.332997 0.102a28.699972 28.699972 0 0 0-4.618996 0.755999 10.28099 10.28099 0 0 0-0.142-0.698999c-0.547999-2.279998-1.323999-4.972995-2.911997-7.635993-0.700999-1.301999-1.503999-2.298998-2.088998-3.027997l-0.063-0.079a7.844992 7.844992 0 0 1-0.191-0.244 9.219991 9.219991 0 0 0-1.133998-1.243998 16.387984 16.387984 0 0 1-0.363-0.35c-0.610999-0.596999-1.534999-1.498999-2.797997-2.318998-1.686998-1.213999-3.632996-2.172998-5.947995-2.929997a86.559915 86.559915 0 0 0-3.265996-2.481997 8.129992 8.129992 0 0 0-0.461-0.304l-2.635997-1.634999c-0.700999-0.433-1.759998-1.086999-3.066997-1.631998l-0.196-0.088c-1.625998-0.738999-3.650996-1.657998-6.084994-2.216998-2.624997-0.769999-5.043995-0.898999-7.177993-1.012999l-0.275-0.016a8.485992 8.485992 0 0 0-0.451-0.012l-0.243999 0.004c-0.915999 0.02-1.853998 0.085-2.795998 0.194a29.876971 29.876971 0 0 0-1.135998-6.161994c-1.664998-5.714994-5.147995-10.72099-9.805991-14.090986-3.418997-2.513998-7.321993-4.221996-11.931988-5.218995-2.569997-1.702998-6.042994-3.795996-10.19999-5.012995-2.367998-0.829999-4.593996-1.099999-6.384994-1.317999l-0.605999-0.073c-0.17-0.024-0.34-0.04-0.574-0.058-0.999999-0.064-2.000998-0.038-3.036997 0.013a34.159967 34.159967 0 0 1-0.693999 0.027l-0.391 0.019c-0.523999 0.026-1.052999 0.056-1.594998 0.108-0.3 0.031-0.600999 0.077-0.892999 0.136l-1.262999 0.254c-4.601996 0.815999-9.046991 2.700997-13.988987 5.930994-0.09 0.059-0.179 0.12-0.270999 0.186l-2.459998 1.739998a8.928991 8.928991 0 0 0-0.605999 0.466l-2.280998 1.912998c-1.105999 0.908999-2.023998 1.790998-2.943997 2.688997l-0.607 0.594a60.171941 60.171941 0 0 0-2.009998 2.018998l-2.795997 2.998997-3.921996 4.400995-10.47499 12.108988c-3.882996 4.428996-8.906991 10.41699-13.326987 17.470983-2.728997 4.379996-4.661995 8.251992-6.082994 12.182989-0.942999 2.540998-1.633998 5.091995-2.053998 7.579992-0.530999 3.009997-0.677999 5.943994-0.435999 8.719992 0.252 3.109997 0.931999 6.090994 2.019998 8.862991a32.637968 32.637968 0 0 0 3.992996 7.199993c3.052997 4.101996 6.371994 6.708993 8.601991 8.312992 2.305998 1.661998 4.240996 2.722997 5.558995 3.444996l0.218 0.116c0.024 0.016 0.081 0.048 0.168999 0.096l1.851999 0.926999c0.148 0.079 0.530999 0.275 1.183999 0.558l1.788998 0.776999c0.151 0.062 0.365 0.146 0.474999 0.186 1.777998 0.655999 4.752995 1.755998 8.705992 2.324998 4.554996 0.675999 9.504991 0.456 14.194986-0.636 0.3-0.073 0.602999-0.148 0.904999-0.228 0.263 2.029998 0.697999 4.009996 1.295999 5.892995 1.555998 4.848995 4.041996 8.459992 5.850994 10.631989 2.044998 2.499998 4.012996 4.099996 5.210995 5.073995l0.161 0.131c0.11 0.093 0.217 0.175 0.244 0.191a39.651961 39.651961 0 0 0 2.091998 1.503999l0.382999 0.262999c0.165 0.115 0.334 0.223 0.497 0.32l1.627998 0.977999c2.709997 1.558998 5.388995 2.687997 8.184992 3.452997 2.917997 0.833999 6.166994 1.273999 9.392991 1.273998 1.343999 0 2.720997-0.078 4.098996-0.232999a40.53496 40.53496 0 0 0 3.352997-0.557c0.029 0.137 0.06 0.271 0.09 0.401 1.095999 5.054995 3.348997 8.932991 5.046995 11.297989 1.885998 2.591997 3.622996 4.357996 4.740995 5.375995 1.052999 1.000999 1.734998 1.545998 1.908998 1.681998l0.553 0.452999c0.309 0.255 0.884999 0.729999 1.582998 1.219999 1.188999 0.864999 3.663996 2.666997 7.201993 4.213996 2.720997 1.174999 7.070993 2.573997 12.343988 2.573998 0.527999 0 1.059999-0.016 1.429999-0.036 3.288997-0.128 6.649994-0.770999 9.99999-1.909998a29.851971 29.851971 0 0 0 2.701997 6.351993c1.772998 3.119997 4.037996 5.856994 6.920993 8.364992a37.586963 37.586963 0 0 0 5.012996 3.708997c0.381 0.248 1.122999 0.717999 1.803998 1.071998l2.133998 1.146999c0.21 0.115 0.424 0.221 0.647999 0.32l2.302998 1.020999c0.966999 0.417 1.967998 0.753999 2.771997 1.022999l0.900999 0.308c0.167 0.061 0.336 0.111 0.53 0.167 3.689996 1.036999 7.170993 1.574998 10.637989 1.643998 0.318 0.009 0.636999 0.013 0.958999 0.013 3.924996 0 8.057992-0.604999 11.948989-1.750998 9.188991-2.648997 16.793984-8.020992 21.553979-12.057989 4.553996-3.827996 8.829991-8.262992 13.073987-13.560986 3.395997-4.288996 5.531995-7.503993 7.429993-10.43199z m-62.16994 5.104995c-0.673999-0.577999-0.679999-0.812999-0.683999-0.935999l-0.011-0.238c-0.05-0.896999 0.849999-3.684996 2.940997-6.816993 2.499998-3.773996 5.779994-7.082993 8.093992-9.196991 0.496-0.461 0.971999-0.871999 1.494999-1.325999l0.171-0.147c0.535999-0.464 1.098999-0.950999 1.733998-1.522998a78.671923 78.671923 0 0 0 3.790996-3.693997c2.069998-2.159998 3.721996-4.080996 5.373995-6.021994l2.656997-3.165997c1.351999-1.613998 2.420998-2.889997 3.269997-3.856996 4.300996-4.960995 7.573993-8.301992 10.58399-9.622991 1.338999-0.542999 2.807997-0.812999 4.488995-0.822999l-0.003-0.499999 0.09 0.499999c1.316999 0 2.838997 0.168 4.527996 0.5 0.141 0.377 0.153 0.559999 0.153 0.562999 0.077 1.206999-0.173 2.602997-0.809999 4.525996-0.666999 2.035998-1.620998 4.297996-3.003997 7.116993-1.316999 2.707997-2.904997 5.660994-4.853996 9.030991a104.913898 104.913898 0 0 1-2.762997 4.509996c-1.464999 2.233998-3.235997 4.879995-5.721994 8.008992-2.985997 3.701996-6.030994 6.864993-9.054992 9.401991-3.575997 3.049997-7.460993 5.321995-10.665989 6.236993-1.270999 0.376-2.525998 0.573999-3.622997 0.574l-0.307999-0.004c-0.869999-0.015-1.774998-0.149-2.805998-0.409a35.026966 35.026966 0 0 0-0.768999-0.259999l-1.223999-0.494-1.473998-0.772999-0.206-0.135c-0.526999-0.335-0.923999-0.607999-1.388999-1.024999z m6.877994-75.286927c-0.228 1.261999-0.764999 2.669997-1.778999 4.667996-2.427998 4.726995-5.786994 9.77499-10.07999 15.895984l-0.680999 0.936999c-1.615998 2.238998-4.058996 5.621995-9.111991 11.321989l-2.570998 2.825998-2.756997 3.114997c-1.561998 1.770998-3.630996 4.087996-5.789994 6.306993-5.541995 5.699994-9.349991 8.157992-11.573989 9.219991-1.105999 0.543999-2.182998 0.862999-3.027997 0.899l-0.1 0.004c-0.073 0-0.208 0-0.581999-0.146-0.435-0.203-0.829999-0.47-1.501999-0.955999l-0.155-0.105a2.135998 2.135998 0 0 0-0.122-0.103l-0.522999-0.423a6.383994 6.383994 0 0 1-0.249-0.229 12.176988 12.176988 0 0 0-0.33-0.307999l-0.001-0.001a6.437994 6.437994 0 0 1-0.698999-0.819999c-0.186-0.264-0.362-0.512999-0.067-1.720999 0.578999-2.429998 2.710997-6.127994 5.851994-10.14699 3.229997-4.148996 6.965993-8.037992 10.19399-11.295989 4.469996-4.520996 7.761992-8.351992 10.40699-11.428989l1.103999-1.282998c3.014997-3.523997 4.723995-5.485995 5.900994-6.773994 4.777995-5.281995 8.068992-8.557992 10.73599-9.66399 0.08-0.031 0.16-0.066 0.278-0.118 0.411-0.177 1.169999-0.389 2.451997-0.389 1.360999-0.001 3.004997 0.247 4.777996 0.717999z m-141.060863-2.943997c-1.299999-0.928999-1.830998-1.584998-1.958998-1.759998-0.349-0.485-0.362-0.681999-0.376999-0.897999l-0.016-0.19c-0.1-1.069999 0.797999-5.005995 4.209996-10.34599 3.287997-5.241995 7.355993-10.07399 10.535989-13.700986l10.41799-12.085989 3.447997-3.900996 2.451997-2.668997c4.948995-5.199995 8.716991-9.020991 12.219988-10.87299l0.463-0.268999 0.225-0.087c0.369-0.139 0.736999-0.293 1.070999-0.436l1.024999-0.297c0.853999-0.23 1.103999-0.275 1.155999-0.279999 0.333-0.016 0.666999-0.053 0.965999-0.101 1.018999-0.161 2.691997-0.153 4.790995 0.025 1.253999 1.173999 1.901998 2.116998 2.225998 2.708997 0.481 0.872999 0.687999 1.697998 0.669999 2.668998-0.101 3.102997-1.604998 7.385993-4.729995 13.471986l-0.236 0.439c-1.219999 2.261998-3.062997 5.680994-7.914992 12.131988a140.854862 140.854862 0 0 1-5.056995 6.278994 176.814827 176.814827 0 0 1-3.126997 3.569996l-3.793997 4.162996-0.665999 0.747c-2.246998 2.516998-4.367996 4.894995-6.524994 7.002993-2.452998 2.400998-4.607996 4.185996-6.594993 5.457995-1.634998 1.072999-3.393997 1.888998-4.818995 2.234997-1.124999 0.259-2.150998 0.313-3.173997 0.172-0.736999-0.102-1.460999-0.348-2.217998-0.615999l-2.176998-1.026999-0.213 0.451999 0.115-0.506999c-0.723999-0.403-1.543998-0.860999-2.393998-1.480999z m97.630905-19.554981c-1.456999 4.209996-3.848996 9.036991-7.997992 16.139985a104.249898 104.249898 0 0 1-2.815997 4.509995c-1.536998 2.312998-3.309997 4.893995-5.852995 8.089992a71.65293 71.65293 0 0 1-2.020998 2.425998c-0.327 0.375-0.657999 0.734999-0.982999 1.083999l-1.543998 1.636998c-1.751998 1.870998-3.931996 4.199996-6.203994 6.399994-4.666995 4.543996-9.050991 7.856992-12.682988 9.582991-2.039998 0.999999-3.584996 1.283999-4.142996 1.357998-0.790999 0.084-1.470999 0.046-2.141998-0.14a5.179995 5.179995 0 0 1-1.209998-0.505999l-0.768-0.46c-0.041-0.029-0.08-0.058-0.096-0.065l-0.104-0.069999c-0.032-0.021-0.15-0.103-0.307999-0.218l-0.125-0.105c-0.338-0.281-0.629999-0.523999-0.812999-0.752999-0.391-0.479-0.491-0.776999-0.492-0.778-0.21-0.695999-0.264-1.471999-0.167-2.445997 0.244-2.799997 1.885998-6.948993 4.392996-11.101989 2.256998-3.762996 5.210995-7.711992 8.774991-11.731989l4.716996-5.156995 6.163994-6.874993c2.791997-3.154997 4.678995-5.240995 5.936994-6.562994l0.228-0.238c2.470998-2.580997 4.603996-4.810995 6.371994-6.179994 1.461999-1.148999 2.708997-1.885998 4.000996-2.374997 1.205999-0.335 2.679997-0.506 4.380995-0.506 1.840998 0 3.925996 0.199 6.200994 0.592 0.018 0.04 0.031 0.073 0.04 0.1l0.02 0.291999c0.091 0.977999-0.144 2.230998-0.758999 4.056996z m-61.25494-61.807939z" p-id="22630"></path></svg>