<?xml version="1.0" standalone="no"?><!DOCTYPE svg PUBLIC "-//W3C//DTD SVG 1.1//EN" "http://www.w3.org/Graphics/SVG/1.1/DTD/svg11.dtd"><svg t="1546508413520" class="icon" style="" viewBox="0 0 1024 1024" version="1.1" xmlns="http://www.w3.org/2000/svg" p-id="17715" xmlns:xlink="http://www.w3.org/1999/xlink" width="200" height="200"><defs><style type="text/css"></style></defs><path d="M303.3 287.1m-187.9 0a187.9 187.9 0 1 0 375.8 0 187.9 187.9 0 1 0-375.8 0Z" fill="#17C3FF" p-id="17716"></path><path d="M875 928.3H611.3c-29.3 0-53-23.7-53-53V611.6c0-29.3 23.7-53 53-53H875c29.3 0 53 23.7 53 53v263.7c0 29.3-23.7 53-53 53zM604.5 425.7c-28.7-28.7-28.7-75.3 0-104l173.2-173.2c28.7-28.7 75.3-28.7 104 0 28.7 28.7 28.7 75.3 0 104L708.5 425.7c-28.7 28.7-75.2 28.7-104 0zM303.3 556.2h143.3c47.6 0 77.4 51.6 53.6 92.8l-71.7 124.1-71.7 124.1c-23.8 41.3-83.4 41.3-107.2 0l-71.6-124L106.4 649c-23.8-41.3 6-92.8 53.6-92.8h143.3z" fill="#17C3FF" p-id="17717"></path></svg>