<?xml version="1.0" standalone="no"?><!DOCTYPE svg PUBLIC "-//W3C//DTD SVG 1.1//EN" "http://www.w3.org/Graphics/SVG/1.1/DTD/svg11.dtd"><svg t="1547110082135" class="icon" style="" viewBox="0 0 1024 1024" version="1.1" xmlns="http://www.w3.org/2000/svg" p-id="7176" xmlns:xlink="http://www.w3.org/1999/xlink" width="200" height="200"><defs><style type="text/css"></style></defs><path d="M1017.6 473.6 524.8 83.2c-6.4-6.4-19.2-6.4-32 0L6.4 473.6C0 480 0 492.8 0 505.6 6.4 512 12.8 524.8 25.6 524.8l134.4 0 0 416 243.2 0 0-147.2 198.4 0 0 147.2 243.2 0L844.8 524.8l153.6 0c12.8 0 19.2-12.8 25.6-19.2C1024 492.8 1024 480 1017.6 473.6zM800 896l-147.2 0 0-147.2L358.4 748.8 358.4 896 211.2 896 211.2 512c0-6.4 6.4-6.4 6.4-12.8 0 0 0 0 0 0l294.4-236.8 294.4 236.8L806.4 896zM844.8 473.6 505.6 198.4 160 473.6 96 473.6 512 140.8l416 332.8L844.8 473.6z" p-id="7177"></path></svg>