<?xml version="1.0" standalone="no"?><!DOCTYPE svg PUBLIC "-//W3C//DTD SVG 1.1//EN" "http://www.w3.org/Graphics/SVG/1.1/DTD/svg11.dtd"><svg t="1547110160811" class="icon" style="" viewBox="0 0 1024 1024" version="1.1" xmlns="http://www.w3.org/2000/svg" p-id="9821" xmlns:xlink="http://www.w3.org/1999/xlink" width="200" height="200"><defs><style type="text/css"></style></defs><path d="M902.5 901.9h-781c-31.6 0-57.2-25.7-57.2-57.2V179.3c0-31.6 25.7-57.2 57.2-57.2h781c31.6 0 57.2 25.7 57.2 57.2v665.4c0 31.6-25.6 57.2-57.2 57.2z m-781-722.6v665.4h781V179.3h-781z" p-id="9822"></path><path d="M941.9 259.4c-7.9-13.8-25.7-18.5-39.5-10.6l-386 222.9-386-222.9c-13.8-7.9-31.5-3.2-39.5 10.6-7.9 13.8-3.2 31.5 10.6 39.5L502 530.2c0.2 0.1 0.5 0.2 0.7 0.3 1 0.5 2 0.9 3 1.4 0.8 0.3 1.6 0.7 2.4 0.9 0.9 0.3 1.8 0.4 2.7 0.6 0.9 0.2 1.9 0.4 2.8 0.5 0.9 0.1 1.8 0.1 2.8 0.1 0.9 0 1.8 0 2.8-0.1 0.9-0.1 1.9-0.3 2.8-0.5 0.9-0.2 1.8-0.3 2.7-0.6 0.8-0.2 1.6-0.6 2.4-0.9 1-0.4 2-0.8 3-1.4 0.2-0.1 0.5-0.2 0.7-0.3L931.3 299c13.8-8 18.6-25.8 10.6-39.6z" p-id="9823"></path><path d="M433 467.7L136.8 890.6c-0.6 0.9-1.9 1.1-2.8 0.5l-44-30.9c-0.9-0.6-1.1-1.9-0.5-2.8l296.1-422.9c0.6-0.9 1.9-1.1 2.8-0.5l44.1 30.9c0.9 0.6 1.1 1.9 0.5 2.8zM597.9 467.7L894 890.6c0.6 0.9 1.9 1.1 2.8 0.5l44.1-30.9c0.9-0.6 1.1-1.9 0.5-2.8L645.2 434.5c-0.6-0.9-1.9-1.1-2.8-0.5l-44.1 30.9c-0.8 0.6-1.1 1.9-0.4 2.8z" p-id="9824"></path></svg>