<?xml version="1.0" standalone="no"?>
<!DOCTYPE svg PUBLIC "-//W3C//DTD SVG 1.1//EN" "http://www.w3.org/Graphics/SVG/1.1/DTD/svg11.dtd" >
<svg xmlns="http://www.w3.org/2000/svg">
<metadata>Generated by IcoMoon</metadata>
<defs>
<font id="icomoon" horiz-adv-x="1024">
<font-face units-per-em="1024" ascent="960" descent="-64" />
<missing-glyph horiz-adv-x="1024" />
<glyph unicode="&#x20;" horiz-adv-x="512" d="" />
<glyph unicode="&#xe900;" glyph-name="pw" d="M820.333 612.973c-13.542 156.712-145.175 280.165-305.3 280.165s-291.703-123.453-305.191-280.111h-5.742c-44.311 0-80.388-36.077-80.388-80.388v-449.39c0-44.311 36.077-80.388 80.388-80.388h615.8c44.31 0 80.388 36.077 80.388 80.388v449.39c-0.001 44.202-35.861 80.117-79.955 80.334zM515.033 834.635c127.731 0 232.062-97.343 245.497-221.608h-490.885c13.434 124.265 117.657 221.608 245.388 221.608zM844.817 83.25c0-13.488-11.374-24.919-24.918-24.919h-615.799c-13.541 0-24.919 11.43-24.919 24.919v449.39c0 13.759 11.159 24.919 24.919 24.919h32.285c0.434 0 0.867-0.271 1.301-0.271 0.488 0 0.867 0.271 1.354 0.271h552.041c0.434 0 0.868-0.271 1.3-0.271 0.488 0 0.868 0.271 1.355 0.271h26.164c13.758 0 24.918-11.158 24.918-24.919v-449.39zM514.057 403.716c-30.605 0-55.469-24.863-55.469-55.469 0-23.997 15.493-43.985 36.89-51.732-0.271-1.246-0.758-2.383-0.758-3.684v-55.469c0-10.672 8.613-19.338 19.337-19.338 10.619 0 19.285 8.667 19.285 19.338v55.469c0 1.301-0.488 2.438-0.757 3.684 21.395 7.746 36.943 27.736 36.943 51.732-0.001 30.606-24.919 55.469-55.471 55.469z" />
<glyph unicode="&#xe901;" glyph-name="un" d="M640 417.28c76.8 44.8 128 128 128 217.6 0 140.8-115.2 256-256 256s-256-108.8-256-249.6c0-96 51.2-172.8 128-217.6-166.4-51.2-281.6-204.8-288-384 0-25.6 12.8-38.4 32-38.4s32 12.8 32 32c6.4 192 160 345.6 352 345.6s345.6-153.6 352-345.6c0-19.2 12.8-32 32-32s32 12.8 32 32c-6.4 179.2-121.6 332.8-288 384zM320 641.28c0 108.8 83.2 192 192 192s192-83.2 192-192-83.2-192-192-192-192 83.2-192 192z" />
<glyph unicode="&#xe902;" glyph-name="jy" horiz-adv-x="1025" d="M512.654-63.998c-0.241 0-0.526-0.001-0.811-0.001-282.655 0-511.791 229.137-511.791 511.791 0 210.984 127.668 392.149 309.965 470.458l3.33 1.272c58.8 25.507 127.283 40.344 199.231 40.344 282.828 0 512.106-229.278 512.106-512.106 0-210.821-127.393-391.889-309.399-470.421l-3.322-1.276c-58.407-25.33-126.431-40.064-197.896-40.064-0.496 0-0.993 0.001-1.489 0.002h0.077zM512.654 879.461c-238.369 0-431.667-193.299-431.667-431.667s193.299-431.667 431.667-431.667 431.667 194.3 431.667 431.667-194.3 431.667-431.667 431.667zM834.151 86.234c-10.997 0.162-20.896 4.729-28.037 12.012l-0.006 0.007-643.996 642.994c-7.305 7.305-11.823 17.397-11.823 28.544 0 22.294 18.073 40.368 40.368 40.368 11.147 0 21.239-4.518 28.544-11.823l643.996-643.996c7.084-7.221 11.456-17.123 11.456-28.047 0-21.928-17.617-39.741-39.469-40.058h-0.030z" />
<glyph unicode="&#xe903;" glyph-name="buy_01" d="M837.139 882.958h-59.605c-16.486 0-35.508-10.144-35.508-26.631s19.022-32.973 35.508-32.973h59.605c35.507 0 59.604-24.096 59.604-59.604v-686.069c0-35.508-24.097-59.604-59.604-59.604h-641.687c-35.508 0-74.82 24.096-74.82 59.604v686.068c0 35.508 24.096 59.604 59.604 59.604h74.82c16.485 0 22.827 16.487 22.827 32.973s-6.341 26.631-22.827 26.631h-74.819c-83.7 0.001-119.209-51.994-119.209-120.475v-678.462c0-73.552 44.385-125.545 125.546-125.545h644.221c81.166 0 125.551 43.118 125.551 125.545v678.462c0.001 68.481-41.849 120.476-119.206 120.476zM255.056 614.107c0-16.486 13.952-30.433 30.433-30.433h447.66c16.486 0 30.438 13.947 30.438 30.433s-13.952 30.438-30.438 30.438h-447.66c-16.481 0-30.433-13.951-30.433-30.438zM731.882 479.683h-446.393c-16.481 0-30.433-13.951-30.433-30.438 0-16.482 13.952-30.433 30.433-30.433h447.66c16.486 0 30.438 13.951 30.438 30.433-1.267 17.755-15.219 30.438-31.706 30.438zM731.882 300.876h-446.393c-16.481 0-30.433-13.952-30.433-30.439 0-16.485 13.952-30.432 30.433-30.432h447.66c16.486 0 30.438 13.947 30.438 30.432-1.267 17.756-15.219 30.439-31.706 30.439zM405.966 808.134h207.979c24.097 0 44.384 24.096 44.384 51.996 0 27.898-20.289 51.995-45.652 51.995h-206.71c-25.363 0-45.652-24.096-45.652-51.995s20.288-51.996 45.652-51.996z" />
<glyph unicode="&#xe904;" glyph-name="buy_02" d="M868 338.9c-19.2-42.3-46.8-80.5-82-113.3-35.3-32.9-76.5-58.8-122.5-76.9-47.7-18.8-98.3-28.3-150.5-28.3-45.7 0-90.6 7.3-133.1 21.9-8.6 2.9-17.9 2-25.7-2.4l-100.5-57.1-15.9 135.3c-0.8 7-3.9 13.5-8.8 18.5-65 65.8-100.8 151.1-100.8 240.3 0 47.8 10.1 94.2 29.9 137.9 19.2 42.3 46.8 80.5 82 113.3 35.3 32.9 76.5 58.8 122.5 76.9 47.6 18.7 98.2 28.3 150.4 28.3s102.9-9.5 150.5-28.3c45.9-18.1 87.1-43.9 122.5-76.9 35.2-32.8 62.8-70.8 82-113.3 19.9-43.7 29.9-90.1 29.9-137.9 0-47.9-10.1-94.2-29.9-138zM925.4 640.9c-22.7 49.9-55.1 94.8-96.5 133.3-41.1 38.3-89 68.4-142.2 89.4-55 21.6-113.4 32.6-173.6 32.6s-118.6-11-173.6-32.6c-53.3-21-101.1-51.1-142.2-89.4-41.3-38.5-73.7-83.3-96.5-133.3-23.5-52-35.5-107.1-35.5-164 0-102.3 39.4-200 111.3-276.7l20.2-172c1.2-10.5 7.6-19.7 17.1-24.4 4.4-2.2 9.2-3.4 14.2-3.4 5.3 0 10.8 1.4 15.6 4.1l129.7 73.7c45-13.8 91.9-20.8 139.8-20.8 60.2 0 118.6 11 173.6 32.6 53.3 21 101.1 51.1 142.2 89.4 41.3 38.5 73.7 83.3 96.5 133.3 23.6 52 35.5 107.1 35.5 164-0.1 57-12.1 112.2-35.6 164.2zM513 524.5c-26.6 0-48.1-21.5-48.1-48.1s21.6-48.1 48.1-48.1 48.1 21.5 48.1 48.1-21.6 48.1-48.1 48.1zM705.5 524.5c-26.6 0-48.1-21.5-48.1-48.1s21.6-48.1 48.1-48.1 48 21.5 48.1 48.1c0 26.5-21.6 48.1-48.1 48.1zM320.6 524.5c-26.6 0-48.1-21.5-48.1-48.1s21.6-48.1 48.1-48.1c26.6 0 48.1 21.5 48.1 48.1s-21.5 48.1-48.1 48.1z" />
<glyph unicode="&#xe905;" glyph-name="buy_03" d="M1020.148 558.197c-9.242 25.569-31.524 44.3-58.603 48.301l-0.402 0.049-266.418 39.614-115.802 240.436c-12.374 24.727-37.511 41.407-66.543 41.407-0.14 0-0.28 0-0.419-0.001h0.021c-28.671 0-54.749-16.159-66.941-41.406l-115.802-240.436-266.45-39.614c-27.464-4.051-49.727-22.784-58.779-47.837l-0.162-0.513c-2.413-6.82-3.808-14.685-3.808-22.875 0-19.653 8.028-37.431 20.984-50.234l0.007-0.007 195.254-194.934-45.278-270.418c-0.601-3.474-0.944-7.475-0.944-11.556 0-24.417 12.297-45.961 31.035-58.779l0.244-0.158c11.913-8.282 26.684-13.231 42.61-13.231 13.1 0 25.418 3.348 36.144 9.236l-0.391-0.196 232.276 125.050 232.308-125.050c10.338-5.638 22.642-8.953 35.722-8.953 15.925 0 30.703 4.915 42.898 13.311l-0.255-0.166c18.965 12.984 31.247 34.524 31.247 58.932 0 4.083-0.344 8.085-1.004 11.98l0.059-0.419-45.31 270.418 195.318 194.934c19.295 19.295 25.919 47.518 17.183 73.116zM754.785 340.416c-12.972-12.855-21.004-30.676-21.004-50.374 0-4.065 0.342-8.051 0.999-11.929l-0.058 0.418 45.31-270.418-232.308 124.986c-10.343 5.666-22.662 8.998-35.758 8.998s-25.415-3.333-36.153-9.196l0.395 0.197-232.308-124.986 45.31 270.418c0.607 3.482 0.954 7.492 0.954 11.583 0 19.671-8.025 37.469-20.979 50.296l-0.006 0.006-195.254 194.934 266.418 39.678c24.638 3.635 45.034 19.004 55.58 40.146l0.193 0.428 115.866 240.372 115.834-240.404c10.751-21.548 31.125-36.907 55.336-40.524l0.405-0.050 266.482-39.678-195.254-194.902z" />
<glyph unicode="&#xe906;" glyph-name="buy_04" d="M780.948 833.342c-70.922 70.917-165.248 109.968-265.499 109.968-100.26 0-194.509-39.051-265.426-110.013-70.881-70.877-109.905-165.162-109.905-265.422 0-78.639 24.073-153.869 69.59-217.624 0.632-1.192 1.404-2.321 2.24-3.337l1.264-1.58c1.156-1.54 2.253-3.021 3.337-4.421 0.664-0.799 1.296-1.684 1.928-2.533l0.108-0.095 278.761-366.205c4.201-5.482 10.752-8.982 18.119-8.982 0.009 0 0.017 0 0.026 0h-0.001c7.355 0.007 13.895 3.489 18.068 8.892l0.039 0.053 278.792 366.241c1.924 2.42 3.721 4.836 5.369 7.049l1.504 1.856c0.777 0.948 1.413 2.005 1.969 3.021 45.58 63.828 69.657 139.026 69.657 217.665-0.009 100.26-39.028 194.545-109.941 265.467zM764.774 392.535c-0.496-0.932-1.026-1.733-1.623-2.479l0.024 0.031-1.224-1.508c-1.35-1.788-2.809-3.752-4.385-5.708l-227.008-296.521c-3.444-4.422-8.768-7.238-14.751-7.238-0.002 0-0.004 0-0.006 0v0c-0.012 0-0.026 0-0.041 0-5.982 0-11.303 2.829-14.698 7.223l-0.032 0.043-227.089 296.575c-0.515 0.682-1.030 1.391-1.567 2.046-0.885 1.129-1.775 2.33-2.718 3.576l-1.034 1.282c-0.661 0.79-1.265 1.672-1.781 2.61l-0.043 0.086c-37.064 51.622-56.662 112.533-56.662 176.207 0 81.168 31.776 157.499 89.49 214.892 57.759 57.447 134.501 89.070 216.139 89.070 81.646 0 158.452-31.623 216.206-89.038 57.754-57.42 89.526-133.756 89.526-214.919 0.009-63.674-19.598-124.553-56.725-176.23zM515.504 666.536c-71.947 0-130.446-58.495-130.446-130.437s58.499-130.442 130.446-130.442c71.938 0 130.442 58.499 130.442 130.442 0 71.947-58.504 130.437-130.442 130.437zM515.504 475.672c-33.33 0-60.428 27.094-60.428 60.423s27.098 60.428 60.428 60.428c33.321 0 60.419-27.094 60.419-60.428 0-33.325-27.098-60.423-60.419-60.423z" />
<glyph unicode="&#xe907;" glyph-name="buy_05" d="M934.925 547.514c24.201 16.066 24.878 28.351 24.878 49.757v149.262c0 41.218-33.416 74.634-74.634 74.634h-746.339c-41.217 0-74.633-33.416-74.633-74.634v-149.262c0-22.296 1.552-37.168 24.878-49.757 33.988-15.827 74.634-47.805 74.634-99.516 0-67.106-42.183-88.939-73.167-99.403-21.808-13.648-26.346-36.123-26.346-49.86v-149.268c0-41.223 33.416-74.634 74.634-74.634h746.339c41.218 0 74.634 33.41 74.634 74.634v149.267c0 27.172-6.24 35.784-24.878 49.757-54.338 28.013-74.634 52.95-74.634 99.512s19.008 69.732 74.635 99.511zM910.048 307.87v-133.53c0-27.474-22.276-49.756-49.757-49.756h-696.583c-27.48 0-49.757 22.28-49.757 49.756v133.53c57.847 20.565 99.513 75.232 99.513 140.128 0 64.902-41.666 119.568-99.513 140.127v133.531c0 27.48 22.276 49.756 49.757 49.756h696.582c27.48 0 49.757-22.275 49.757-49.756v-133.53c-57.842-20.56-99.513-75.227-99.513-140.128 0-64.897 41.671-119.564 99.513-140.129zM648.828 497.76h-93.918l101.95 109.537c4.409 4.817 4.409 12.633 0 17.455l-15.956 17.454c-4.409 4.822-11.548 4.822-15.957 0l-113.066-121.476-113.11 121.515c-4.374 4.782-11.465 4.782-15.833 0l-15.833-17.32c-4.374-4.782-4.374-12.534 0-17.316l102.254-109.85h-94.189c-6.872 0-12.44-5.574-12.44-12.44v-24.883c0-6.871 5.568-12.44 12.44-12.44h111.95v-49.755h-111.95c-6.872 0-12.44-5.568-12.44-12.44v-24.877c0-6.867 5.568-12.44 12.44-12.44h111.95v-87.073c0-6.866 5.568-12.439 12.44-12.439h24.877c6.872 0 12.44 5.573 12.44 12.44v87.072h111.95c6.872 0 12.44 5.573 12.44 12.44v24.876c0 6.872-5.568 12.44-12.44 12.44h-111.95v49.756h111.95c6.872 0 12.44 5.568 12.44 12.44v24.882c0 6.867-5.568 12.44-12.44 12.44z" />
<glyph unicode="&#xe908;" glyph-name="sell_01" d="M909.7 740.6l-6.1 3.2v128.7c0 4.6-1.8 8.7-4.2 12.2-0.3 0.4-0.5 0.8-0.8 1.2-1.1 1.3-2.2 2.5-3.6 3.5-0.7 0.6-1.5 1.1-2.3 1.5-1.2 0.7-2.4 1.4-3.8 1.9-1.8 0.7-3.8 1-5.8 1.2-0.5 0-0.9 0.3-1.4 0.3h-741.8c-9.7 0-18.2-6.3-20.9-15.6-1.4-4.6-1.2-9.4 0.4-13.7-0.7-2.1-1.3-4.2-1.3-6.5v-114.7l-6.4-3.2c-9-1.2-15.7-5.3-15.7-15.1v-690.2l2-1.9c2.4-18.1 16.9-32 35.3-33.1l0.5-0.4h752.4c20.4 0 36.6 15.9 38 35.9l1 0.9v688.7c0.1 9.9-6.5 13.9-15.5 15.2zM821.4 850.7l-58.6-37.5c-5.6-4.3-8.8-11.1-8.5-18.1 0.3-7.1 3.9-13.6 9.8-17.4l66.3-36.5h-635.6l73 37.8c6.3 3.9 10.2 10.8 10.4 18.3 0.1 7.5-3.6 14.5-9.9 18.5l-64.7 34.9h617.8zM860 833.4v-66.7l-57.9 30.5 57.9 36.2zM161.8 834.7l63.4-36.7-63.4-32.1v68.8zM881.7 43.4h-742v654.1h741.9v-654.1zM340.1 536.8c15.9-86.5 78.5-143.9 163.2-143.9 84.6 0 147.2 57.2 163.2 143.6 13.3 7 22.5 20.8 22.5 36.8 0 23-18.7 41.8-41.8 41.8-23 0-41.8-18.7-41.8-41.8 0-13.6 6.6-25.6 16.7-33.2-12.1-56.1-49.9-103.6-118.9-103.6-68.9 0-106.6 47.3-118.8 103.3 10.3 7.6 17.1 19.7 17.1 33.5 0 23-18.8 41.8-41.8 41.8s-41.7-18.7-41.7-41.8c0.1-15.8 9.1-29.5 22.1-36.5z" />
<glyph unicode="&#xe909;" glyph-name="sell_03" d="M360.787 898h-180.595c-65.246-0.074-118.118-52.946-118.192-118.185v-180.602c0.092-65.231 52.958-118.083 118.186-118.152h298.753v298.747c-0.074 65.232-52.923 118.095-118.142 118.192h-0.009zM424.427 535.573h-244.265c-35.131 0.040-63.599 28.508-63.64 63.636v180.599c0.040 35.131 28.508 63.599 63.636 63.64h180.629c35.131-0.040 63.599-28.508 63.64-63.636v-0.004zM62 296.787v-180.615c0.086-65.237 52.953-118.098 118.185-118.172h180.602c65.221 0.097 118.066 52.949 118.152 118.164v298.805h-298.747c-65.245-0.069-118.118-52.938-118.192-118.175v-0.007zM424.427 116.172c-0.040-35.131-28.508-63.599-63.636-63.64h-180.599c-35.131 0.040-63.599 28.508-63.64 63.636v180.619c0.034 35.135 28.505 63.609 63.636 63.65h244.269zM843.828 898h-180.615c-65.246-0.074-118.118-52.946-118.192-118.185v-298.754h298.807c65.221 0.086 118.070 52.932 118.162 118.143v180.604c-0.069 65.237-52.927 118.106-118.154 118.192h-0.008zM907.468 599.213c-0.046-35.129-28.511-63.594-63.635-63.64h-244.269v244.265c0.040 35.131 28.508 63.599 63.636 63.64h180.629c35.129-0.046 63.594-28.511 63.64-63.635v-0.004zM843.828 414.969h-298.807v-298.797c0.086-65.237 52.953-118.098 118.185-118.172h180.622c65.228 0.086 118.082 52.943 118.162 118.164v180.623c-0.074 65.233-52.93 118.096-118.154 118.182h-0.008zM907.448 116.172c-0.057-35.113-28.506-63.562-63.614-63.619h-180.62c-35.128 0.034-63.598 28.494-63.65 63.615v244.27h244.265c35.129-0.046 63.594-28.511 63.64-63.635v-0.004z" />
<glyph unicode="&#xe90a;" glyph-name="sell_04" d="M897.8 578.1c-16.7 0-30.3-13.6-30.3-30.3v-373.6c0-26.4-21.3-47.8-47.5-47.8h-648.6c-26.2 0-47.5 21.5-47.5 47.8v613.2c0 26.4 21.3 47.8 47.5 47.8h431.9c16.7 0 30.3 13.6 30.3 30.3s-13.6 30.3-30.3 30.3h-431.9c-59.5 0-108-48.6-108-108.3v-613.2c0-59.7 48.4-108.3 108-108.3h648.5c59.6 0 108.1 48.6 108.2 108.3v373.5c0 16.7-13.6 30.3-30.3 30.3zM888 781.2c2.1 2.1 4.6 4.5 7.4 7.2s6 5.8 9.6 9.4c3.3 3.6 5.7 7.3 7.2 11.2 1.5 3.8 2.2 7.7 2.2 11.6s-0.4 7.6-1.1 11.2c-0.7 3.6-1.7 6.7-2.9 9.4-4.2 8.9-10.1 17.5-17.7 25.8-7.6 8.2-14.5 13.9-20.8 17.2-3 1.5-6.5 2.8-10.5 4s-8.2 1.9-12.5 2-8.7-0.5-13.2-1.8-8.8-3.6-13-6.9c-3.3-2.7-7.4-6.4-12.3-11-5-4.7-9.2-8.6-12.8-11.9l83.7-83.7c2.1 1.8 4.3 3.9 6.7 6.3zM574.3 635.6c-6.5-6.8-10.7-11-12.5-12.8-4.2-4.2-7.4-8-9.6-11.2-2.2-3.4-4.2-7.2-6-11.4-1.5-2.7-3.4-7.6-5.8-14.8s-4.9-15-7.4-23.5c-2.5-8.2-4.9-16.4-7.2-24.6-2.3-7.9-3.7-13.9-4.3-18.1-1.2-7.8-0.5-13.3 2.2-16.6s8-4.5 16.1-3.6c3.9 0.6 9.8 1.9 17.7 4s16.3 4.6 25.1 7.4c8.8 2.8 17.3 5.7 25.3 8.7s14.1 5.5 18.3 7.6c4.2 1.8 8.2 4.2 12.1 7.2s7.3 5.8 10.3 8.5c1.2 0.8 4.9 4.4 11.2 10.7 6.2 6.2 14.2 14.2 23.7 23.9s20.3 20.4 32.2 32l35.8 36.2 96.2 96.2-83.7 84.1-165.1-165.1c-9.8-9.8-18-18.1-24.6-24.8zM732.8 435.4h-479.3c-16.7 0-30.3-13.6-30.3-30.3s13.6-30.3 30.3-30.3h479.3c16.7 0 30.3 13.5 30.3 30.3 0 16.7-13.6 30.3-30.3 30.3zM732.8 286.6h-479.3c-16.7 0-30.3-13.6-30.3-30.3s13.6-30.3 30.3-30.3h479.3c16.7 0 30.3 13.6 30.3 30.3s-13.6 30.3-30.3 30.3z" />
<glyph unicode="&#xe90b;" glyph-name="sell_05" d="M898.005 412.48c1.131 11.755 1.835 23.552 1.835 35.52s-0.704 23.765-1.835 35.52l90.133 71.211c11.559 9.426 18.882 23.668 18.882 39.62 0 9.402-2.544 18.209-6.98 25.772l0.13-0.24-96.128 168.043c-8.932 15.457-25.381 25.691-44.22 25.691-6.762 0-13.216-1.318-19.118-3.712l0.341 0.122-105.621-42.901c-17.482 12.742-37.33 24.598-58.235 34.598l-2.288 0.986-16.021 114.048c-4.016 24.567-25.014 43.11-50.373 43.264h-192.315c-25.237 0-46.443-18.155-50.432-43.648l-15.957-113.664c-23.226-11.015-43.093-22.87-61.703-36.354l1.117 0.77-105.899 43.072c-22.805 8.832-50.432-0.917-62.613-22.272l-96.128-168c-4.295-7.328-6.831-16.137-6.831-25.538 0-16.109 7.446-30.48 19.084-39.857l0.098-0.077 89.749-70.933c-1.125-10.599-1.791-22.952-1.834-35.452v-0.068c0-11.968 0.704-23.808 1.835-35.52l-90.24-71.189c-11.458-9.453-18.706-23.653-18.706-39.547 0-9.411 2.541-18.229 6.975-25.804l-0.131 0.242 96.171-168.171c9.001-15.368 25.432-25.526 44.236-25.526 6.738 0 13.172 1.304 19.062 3.674l-0.344-0.122 105.621 42.901c19.413-13.909 39.701-25.835 60.523-35.52l16.021-114.219c3.814-24.607 24.846-43.221 50.227-43.221 0.035 0 0.069 0 0.104 0h192.251c24.917 0 46.549 18.581 50.496 43.648l15.957 113.728c23.198 11.008 43.045 22.863 61.63 36.35l-1.108-0.766 105.899-43.136c5.442-2.151 11.745-3.397 18.34-3.397 18.879 0 35.372 10.218 44.249 25.426l0.131 0.243 95.979 167.936c12.565 21.675 7.701 49.152-12.309 65.707l-89.707 70.763zM861.333 135.894l-119.701 48.661c-3.019 1.284-6.53 2.031-10.216 2.031-6.25 0-11.999-2.147-16.549-5.743l0.056 0.043c-21.676-17.088-46.405-31.854-72.937-43.219l-2.135-0.813c-8.68-3.719-14.945-11.585-16.345-21.036l-0.018-0.148-17.621-125.845-186.709-2.752-18.005 128.597c-1.397 9.602-7.66 17.473-16.165 21.117l-0.177 0.067c-28.673 12.214-53.405 26.977-75.807 44.573l0.714-0.541c-4.49 3.508-10.214 5.626-16.434 5.626-3.683 0-7.193-0.743-10.388-2.086l0.177 0.066-115.499-49.749-97.152 164.608 101.525 80.085c7.445 5.888 11.221 15.253 10.027 24.64-1.942 13.132-3.094 28.355-3.178 43.832v0.094c0 14.869 1.237 29.483 3.136 43.819 0.15 1.065 0.236 2.296 0.236 3.547 0 8.541-3.999 16.147-10.227 21.049l-0.057 0.043-100.48 76.693 91.968 166.976 119.595-48.619c8.896-3.648 19.072-2.283 26.688 3.605 21.742 17.062 46.517 31.876 73.066 43.364l2.177 0.839c8.811 3.669 14.955 11.691 16.299 21.12l14.997 125.696 189.333 2.752 18.027-128.555c1.28-9.429 7.552-17.451 16.341-21.12 28.688-12.241 53.434-27.024 75.851-44.637l-0.715 0.541c7.659-5.867 17.813-7.275 26.709-3.669l115.499 49.707 97.195-164.501-101.568-80.192c-6.298-4.994-10.301-12.645-10.301-21.231 0-1.187 0.076-2.356 0.225-3.502l-0.014 0.135c1.835-14.443 3.179-29.035 3.179-43.925 0-14.869-1.301-29.461-3.179-43.925-1.195-9.365 2.645-18.688 10.091-24.576l100.437-76.587-91.968-166.955zM512.427 651.2c-111.232 0-201.685-91.136-201.685-203.2 0-112 90.453-203.179 201.685-203.179s201.643 91.136 201.643 203.179c0 112.064-90.475 203.2-201.643 203.2zM512.427 298.71c-81.451 0-147.755 66.923-147.755 149.291s66.304 149.291 147.755 149.291 147.691-66.987 147.691-149.291-66.283-149.291-147.691-149.291z" />
<glyph unicode="&#xe90c;" glyph-name="sell_06" d="M854.1 790.7h-684.9v-237.5h684.9v237.5zM808.1 599.2h-592.9v145.5h592.9v-145.5zM169.2 322.4h326.5v173.7h-326.5v-173.7zM215.2 450.1h234.5v-81.7h-234.5v81.7zM169.2 105.3h326.5v173.7h-326.5v-173.7zM215.2 233h234.5v-81.7h-234.5v81.7zM553.3 496.1v-390.7h301.4v390.7h-301.4zM808.8 151.4h-209.5v298.7h209.4v-298.7z" />
<glyph unicode="&#xe90d;" glyph-name="sell_08" d="M665.6 739.84v-204.8h159.744l111.616-168.448v-67.072h-67.584v-51.2c0-46.592-37.888-84.48-84.992-84.48-46.592 0-84.992 37.888-84.992 84.48v51.2h-375.296v-51.2c0-46.592-37.888-84.48-84.992-84.48s-84.992 37.888-84.992 84.48v51.2h-67.072v440.32h578.56zM683.008 791.040h-613.376c-18.944 0-33.792-15.36-33.792-33.792v-475.136c0-18.944 15.36-33.792 33.792-33.792h33.792c0-74.752 60.928-135.68 136.192-135.68 74.752 0 136.192 60.928 136.192 135.68h272.896c0-74.752 60.928-135.68 136.192-135.68 74.752 0 136.192 60.928 136.192 135.68h33.792c18.944 0 33.792 15.36 33.792 33.792v93.696c1.024 3.072 0.512 6.144-1.536 8.704l-129.024 194.56c-4.096 5.12-8.704 7.168-14.336 7.168h-126.976v171.008c0 18.944-14.848 33.792-33.792 33.792zM785.408 111.616c-75.776 0-137.216 61.44-137.216 137.216s61.44 137.216 137.216 137.216 137.216-61.44 137.216-137.216-61.44-137.216-137.216-137.216zM785.408 334.848c-47.616 0-86.016-38.4-86.016-86.016s38.4-86.016 86.016-86.016 86.016 38.4 86.016 86.016-38.4 86.016-86.016 86.016zM239.616 111.616c-75.776 0-137.216 61.44-137.216 137.216s61.44 137.216 137.216 137.216 137.216-61.44 137.216-137.216-61.44-137.216-137.216-137.216zM239.616 334.848c-47.616 0-86.016-38.4-86.016-86.016s38.4-86.016 86.016-86.016 86.016 38.4 86.016 86.016-38.4 86.016-86.016 86.016zM691.2 299.52c-14.336 0-25.6 11.264-25.6 25.6v286.72c0 14.336 11.264 25.6 25.6 25.6s25.6-11.264 25.6-25.6v-286.72c0-14.336-11.264-25.6-25.6-25.6zM537.6 519.68h-307.2c-14.336 0-25.6 11.264-25.6 25.6s11.264 25.6 25.6 25.6h307.2c14.336 0 25.6-11.264 25.6-25.6s-11.264-25.6-25.6-25.6z" />
<glyph unicode="&#xe90e;" glyph-name="sell_09" d="M130.6 286.8c20.9-49.3 50.7-93.6 88.7-131.6s82.3-67.8 131.6-88.7c51.1-21.6 105.2-32.5 161.1-32.5h0.1c55.9 0 110.1 11 161.1 32.6 49.3 20.9 93.6 50.7 131.6 88.7s67.8 82.3 88.7 131.6c21.6 51.1 32.5 105.3 32.5 161.2s-11 110.1-32.6 161.1c-20.9 49.3-50.7 93.6-88.7 131.6s-82.3 67.8-131.6 88.7c-51.1 21.6-105.2 32.5-161.1 32.5h-0.1c-55.9 0-110.1-11-161.1-32.6-49.3-20.9-93.6-50.7-131.6-88.7s-67.8-82.3-88.7-131.6c-21.6-51.1-32.5-105.3-32.5-161.2s11-110.1 32.6-161.1zM254.6 705.3c68.7 68.8 160.1 106.7 257.3 106.7h0.1c97.2 0 188.6-37.8 257.3-106.6 68.8-68.7 106.7-160.1 106.7-257.3s-37.8-188.6-106.6-257.4c-68.7-68.8-160.1-106.7-257.3-106.7h-0.1c-97.2 0-188.6 37.8-257.3 106.6-68.8 68.7-106.7 160.1-106.7 257.3 0 97.3 37.8 188.7 106.6 257.4zM317.7 207.9c8.8-6.9 21.2-7 30.2-0.4l164.1 121.3 164.2-121.2c9-6.6 21.3-6.5 30.2 0.4 8.8 6.9 12 18.8 7.8 29.2l-179.1 440.6c-3.8 9.4-13 15.6-23.2 15.6s-19.3-6.2-23.2-15.6l-178.9-440.7c-4.1-10.4-0.9-22.3 7.9-29.2zM512 601.9l122.4-301.3-107.5 79.4c-8.8 6.5-20.9 6.5-29.7 0l-107.5-79.5 122.3 301.4z" />
<glyph unicode="&#xe90f;" glyph-name="sell_10" d="M1009.335 299.077c-17.473 14.8-43.641 12.653-58.44-4.829l-217.648-256.904-93.729 86.876c-16.795 15.58-43.034 14.558-58.593-2.227-15.569-16.794-14.567-43.023 2.227-58.593l125.527-116.345c7.37-6.851 17.282-11.055 28.176-11.055 0.002 0 0.005 0 0.007 0v0c0.83 0 1.66 0.021 2.5 0.071 11.71 0.729 22.010 6.214 29.086 14.528l0.049 0.059 245.668 289.977c14.799 17.473 12.643 43.641-4.83 58.442zM512 959.994c-282.767 0-511.993-229.227-511.993-511.994 0-282.764 229.227-511.993 511.993-511.993 3.208 0 6.407 0.040 9.602 0.099 2.101 0.038 4.198 0.090 6.292 0.153 14.793 1.907 26.225 14.54 26.225 29.852 0 16.299-12.953 29.564-29.126 30.085-3.856-0.117-8.409-0.185-12.977-0.188h-0.015c-61.045 0-120.233 11.942-175.917 35.495-53.817 22.763-102.161 55.361-143.691 96.892-41.529 41.528-74.128 89.874-96.89 143.688-23.555 55.686-35.497 114.872-35.497 175.918s11.942 120.234 35.496 175.917c22.762 53.817 55.361 102.161 96.89 143.691 41.53 41.53 89.874 74.128 143.691 96.89 55.685 23.553 114.872 35.496 175.917 35.496s120.232-11.943 175.919-35.496c53.814-22.762 102.159-55.36 143.688-96.889 41.529-41.531 74.128-89.875 96.891-143.692 23.554-55.684 35.495-114.873 35.495-175.917 0-13.299-0.567-26.509-1.697-39.615-0.095-1.098-0.201-2.192-0.304-3.289-0.016-0.396-0.030-0.791-0.030-1.19 0-16.629 13.48-30.109 30.109-30.109 14.521 0 26.64 10.28 29.479 23.959 1.554 15.062 2.441 32.548 2.443 50.241v0.003c0 282.767-229.228 511.993-511.992 511.993zM300.049 459.926c7.496 9.334 7.917 27.574 0.865 37.533-7.377 10.413-11.081 14.723-26.758 25.938-14.093 10.083-29.69 17.504-41.703 22.843-0.472 0.21-1.125 0.5-1.665 0.757l0.031 0.337c0.827 8.671 1.9 18.952 3.585 29.455 2.852 17.775 8.8 35.723 19.287 58.196 6.775 14.524 16.224 28.98 30.636 46.874 0.83 1.031 1.395 1.634 1.765 1.985 0.798-0.288 1.597-0.586 2.43-0.898 2.875-1.075 6.134-2.293 9.759-3.125 3.296-0.755 7.193-1.702 11.105-3.004 3.188-1.061 6.095-1.577 8.888-1.577 3.953 0 7.62 1.061 10.901 3.154 3.295 2.102 6.113 5.113 9.137 9.764 2.112 3.246 4.612 6.514 7.633 9.978 0.408 0.464 0.775 0.982 1.086 1.536l0.023 0.045c2.889 5.226 1.939 9.261 0.634 11.727-2.876 5.43-8.777 5.973-10.994 6.177l-0.205 0.019c-4.267 0.402-8.708 1.068-13.581 2.037-8.182 1.627-16.456 3.866-24.919 6.209-1.204 0.333-2.702 0.909-4.3 1.524-3.933 1.51-8.827 3.39-14.085 3.39-2.821 0-5.501-0.539-7.968-1.602-4.44-1.916-7.293-5.165-9.599-7.79-0.452-0.516-0.898-1.027-1.354-1.509-0.822-0.871-1.647-1.717-2.52-2.614-2.728-2.797-5.547-5.69-8.177-9.27-2.003-2.729-4.25-5.48-6.484-8.216-3-3.673-6.101-7.472-8.947-11.631-4.765-6.961-9.258-14.37-13.735-22.648-23.048-42.597-34.309-87.223-33.47-132.639 0.299-16.144 16.247-22.601 26.795-26.872l0.102-0.042c2.017-0.819 3.922-1.593 5.382-2.295 19.538-9.413 27.836-14.138 44.216-30.192 1.912-1.873 3.855-3.476 5.738-5.029 1.673-1.378 3.254-2.68 4.644-4.053 0.299-0.295 0.851-0.942 1.348-1.524 2.853-3.342 7.165-8.393 13.888-8.395h0.001c4.005 0.001 7.765 1.935 10.585 5.447zM837.847 561.374c-0.26 2.884-0.528 5.867-0.667 8.726-0.298 5.972-1.262 12.422-2.865 19.168-3.017 12.715-5.852 23.094-8.923 32.664-6.059 18.888-14.454 36.82-25.664 54.823-4.325 6.942-9.079 13.616-13.676 20.071l-0.128 0.179c-0.495 0.576-2.531 3.43-4.548 6.299l-1.644 2.467c-0.456 0.65-0.97 1.214-1.546 1.706l-0.013 0.010c-0.576 0.491-1.269 1.057-1.972 1.61l-0.157 0.119c-1.684 1.329-2.984 2.395-3.156 3.043-0.665 2.405-2.226 4.366-4.291 5.543l-0.045 0.024c-1.569 2.79-4.51 4.643-7.884 4.643-0.006 0-0.012 0-0.018 0h-4.663c-0.003 0-0.006 0-0.009 0-2.682 0-5.092-1.169-6.746-3.026l-0.008-0.009c-0.224-0.108-0.457-0.229-0.695-0.364-1.589-0.907-3.057-1.854-4.476-2.77l-0.115-0.074c-3.282-2.125-6.118-3.959-8.931-4.322-1.074-0.142-2.047-0.452-2.935-0.905l0.051 0.024-2.345-1.173c-0.811-0.413-1.509-0.905-2.126-1.483l0.005 0.005c-1.223-1.145-3.767-1.726-6.46-2.342-0.823-0.188-1.639-0.375-2.438-0.578-1.307-0.33-2.624-0.698-3.94-1.068-3.502-0.983-6.81-1.913-9.635-1.913-0.022 0-0.049 0-0.075 0-0.691 0-1.366 0.069-2.018 0.199l0.065-0.011c-10.516 2.093-18.426 4.103-25.65 6.517-3.582 1.196-7.2 2.296-10.768 3.38-8.66 2.633-16.841 5.12-24.414 8.945-0.618 0.319-1.336 0.581-2.089 0.751l-0.061 0.011c-8.655 1.881-16.261 4.641-23.231 8.424-0.777 0.435-1.68 0.768-2.636 0.949l-0.056 0.009c-5.69 1.050-11.258 3.353-17.171 5.798-2.296 0.951-4.897 2.028-7.499 3.009-1.713 0.645-3.397 1.195-5.026 1.727l-0.113 0.037c-3.816 1.244-7.112 2.319-9.628 4.156-1.413 1.045-3.177 1.689-5.090 1.737h-0.011c-1.6 1.45-3.733 2.337-6.073 2.337-0.069 0-0.139-0.001-0.208-0.002h0.010c-6.47 3.479-13.033 5.174-20.018 5.174-2.244 0-4.548-0.186-6.845-0.553-3.929-0.627-8.105-0.993-12.161-1.348-4.136-0.364-8.412-0.74-12.716-1.397-14.135-2.159-25.957-3.893-37.204-5.455-2.888-0.401-5.78-0.781-8.676-1.16-6.335-0.829-12.887-1.687-19.44-2.796l-3.983-0.676c-12.651-2.152-25.732-4.378-38.449-5.452-14.002-1.181-25.092-6.708-34.902-17.39l-1.845-2.008c-2.936-3.145-8.637-9.359-14.32-15.59l-3.148-3.501c-1.611-1.078-2.9-2.517-3.773-4.206l-0.029-0.063c-0.228-0.436-0.437-0.948-0.599-1.481l-0.017-0.065c-0.37-0.445-1.766-1.428-2.524-1.962-0.755-0.533-1.402-1.153-1.947-1.856l-0.015-0.021c-7.856-10.19-17.64-20.173-29.91-30.52-2.048-1.724-6.583-6.655-4.481-15.181 2.107-8.561 6.964-15.84 14.044-21.049 18.927-13.927 36.299-20.698 53.109-20.698 0.656 0 1.311 0.011 1.982 0.031 13.615 0.44 33.819 5.529 48.042 12.1 7.296 3.372 14.577 8.024 21.654 12.547 5.905 3.775 12.012 7.679 17.795 10.583 1.704 0.856 3.043 1.877 4.035 2.633l0.075 0.057c9.191-1.738 18.388-2.548 27.299-3.333 3.181-0.28 6.786-0.597 10.274-0.958 2.899-0.301 5.856-0.67 8.737-1.030 5.885-0.733 11.971-1.492 18.203-1.772 0.453-0.021 0.928-0.030 1.492-0.040 0.801-0.015 2.117-0.040 2.61-0.182 7.395-4.897 12.29-8.082 17.913-11.729 3.898-2.531 8.029-5.213 13.625-8.884 13.631-8.944 22.305-14.763 31.487-20.922l0.495-0.333c6.843-4.589 13.918-9.334 23.665-15.796 3.577-2.371 7.159-4.736 10.74-7.101l2.538-1.676c15.631-10.315 31.794-20.981 47.328-31.875 14.32-10.042 28.672-20.643 42.551-30.895l0.223-0.164c4.111-3.036 8.22-6.070 12.332-9.094-3.919 2.705-1.594 0.985 0.734-0.73l6.407-4.507c1.506-1.1 3.028-2.172 4.552-3.246l0.311-0.219c6.61-4.646 12.854-9.033 16.989-15.134 2.664-3.938 1.403-11.406-0.77-13.83-1.503-1.673-4.484-2.798-7.431-2.798-1.873 0-3.711 0.447-5.313 1.292-12.474 6.582-26.104 13.919-42.896 23.091-15.481 8.452-28.493 15.616-41.674 23.113-3.815 2.167-7.761 4.286-11.241 6.155-6.122 3.289-12.453 6.689-18.315 10.394-5.318 3.36-11.703 7.072-18.742 9.136-1.798 0.554-3.866 0.877-6.008 0.886h-0.005c-8.87 0-16.367-5.88-20.054-15.73-3.361-8.989 1.347-20.387 10.717-25.947 2.997-1.78 6.025-3.349 8.953-4.866l0.090-0.046c2.125-1.1 4.322-2.237 6.39-3.401 2.249-2.365 28.605-17.092 55.109-31.58l25.465-12.747c6.622-3.566 12.317-7.013 14.941-13.087 2.121-4.913-0.094-10.983-3.465-14.017-1.827-1.646-3.956-2.518-6.156-2.518-1.669 0-3.438 0.47-5.26 1.396-14.187 7.209-26.659 13.774-38.132 20.070-11.276 6.192-22.709 12.577-33.767 18.752l-0.231 0.13c-11.558 6.456-21.985 12.273-32.561 18.088-2.791 1.552-6.122 2.466-9.667 2.466-0.010 0-0.021 0-0.031 0h0.002c-8.13 0-15.834-4.736-19.626-12.067-5.481-10.61-1.401-24.223 8.905-29.725 2.591-1.386 5.185-2.768 7.777-4.15l3.851-2.054c13.908-7.411 29.672-15.812 44.608-24.054 8.998-4.968 15.396-9.655 19.485-17.66 1.667-3.27 1.159-8.619-1.184-12.446-1.412-2.31-4.035-5.063-8.441-4.493l-1.508 0.189c-4.585 0.576-8.207 1.032-11.272 2.694l-2.306 1.251c-6.331 3.435-12.878 6.986-19.441 10.345-5.278 2.703-10.872 5.499-15.366 7.746-8.372 4.186-17.029 8.514-25.506 13.037-3.663 1.952-7.697 2.984-11.667 2.984-7.639 0-14.091-3.615-17.706-9.923-3.424-5.989-4.364-12.545-2.646-18.46 1.604-5.519 5.438-10.114 10.795-12.94 2.671-1.408 5.379-2.878 8.012-4.307l0.699-0.38c7.598-4.122 15.454-8.385 23.644-11.984 5.964-2.625 9.303-6.871 10.826-13.766 0.516-2.345-0.407-4.446-2.743-6.247-1.736-1.339-3.22-2.018-4.407-2.018-0.576 0-1.165 0.144-1.861 0.454 16.37-6.394 11.556-4.23 6.736-2.078l-21.366 8.522c-9.923 4.352-20.183 8.851-30.138 13.476-1.561 0.723-3.666 1.552-6.124 1.552-4.596 0-8.094-2.5-10.402-7.442-1.476-3.17-3.192-6.473-4.709-9.393l-0.398-0.769c-0.567-1.095-1.135-2.188-1.693-3.286-2.070-4.060-2.342-8.472-0.766-12.424 3.268-8.192 12.951-11.618 20.072-14.138 1.315-0.465 2.806-0.992 3.461-1.302 2.979-1.401 6.034-2.977 9.007-4.51 11.869-6.119 24.143-12.446 39.291-12.446 0.656 0 1.315 0.012 1.984 0.037 11.5 0.429 21.704 4.476 28.722 11.382 0.576 0.554 1.184 1.107 1.805 1.645l0.060 0.051c1.565 1.376 3.341 2.935 5.059 5.145 5.311 6.836 8.993 15.444 10.419 24.321l0.717-0.209c2.549-0.749 4.957-1.456 7.242-1.558 0.787-0.034 1.582-0.052 2.37-0.052 15.204 0 29.905 6.385 39.326 17.081 5.431 6.171 9.296 12.356 11.815 18.911 1.567 4.071 2.184 8.041 2.536 11.755 4.459-0.849 9.113-1.153 14.093-0.918 16.775 0.784 30.076 7.9 39.532 21.148 6.72 9.404 10.388 18.62 11.132 28.021 2.475 0.209 4.792 0.648 6.896 1.047l0.396 0.074c4.921 0.93 9.212 2.117 13.121 3.631 2.94 1.142 5.449 2.406 7.815 3.878l-0.197-0.114c7.469 4.608 13.514 11.346 17.482 19.483 3.526 7.238 5.611 14.384 6.196 21.236 0.813 9.5-0.57 18.946-4.002 27.317-3.152 7.581-7.312 14.098-12.405 19.758l0.055-0.062c-1.735 1.938-3.573 3.614-5.413 5.12 2.139 1.551 3.4 2.16 4.487 2.196 1.366 0.054 2.64 0.397 3.779 0.97l-0.053-0.024 4.686 2.341c0.627 0.322 1.167 0.676 1.665 1.080l-0.018-0.014c3.602 2.932 8.185 4.631 13.457 6.586l0.303 0.11c1.344 0.509 2.487 1.28 3.414 2.258l0.004 0.004c0.796 0.84 2.686 1.631 4.52 2.4l0.162 0.068c0.912 0.384 1.855 0.78 2.834 1.245 7.57 3.584 8.82 9.245 9.064 13.775 0.352 6.456-0.2 12.599-0.734 18.54zM527.77 715.037l0.542-4.972c4.606 0.405 9.366 0.823 14.626 1.636 2.252-1.367 4.85-2.553 7.588-3.424l0.258-0.071c1.956-0.949 4.265-1.812 6.663-2.461l0.285-0.066c4.984-2.476 9.489-3.945 13.131-5.132l0.133-0.043c1.137-0.371 2.313-0.754 3.128-1.063 1.919-0.723 4.049-1.604 6.195-2.492 5.892-2.44 12.551-5.198 20.376-7.176 8.054-3.926 16.777-7.070 25.942-9.352 9.612-4.408 19.059-7.276 27.401-9.81l0.134-0.041c3.323-1.011 6.461-1.965 9.449-2.963 9.042-3.021 18.594-5.467 30.968-7.93 3.167-0.657 6.806-1.033 10.533-1.033 0.022 0 0.043 0 0.065 0h-0.003c8.864 0 16.187 2.058 21.523 3.558l0.352 0.098c0.881 0.246 1.707 0.477 2.406 0.655 0.422 0.105 0.853 0.203 1.372 0.322l0.139 0.031c4.32 0.989 11.476 2.626 18.904 7.18 0.306 0.096 0.61 0.195 0.914 0.296 4.221-5.922 8.208-11.543 11.734-17.203 9.283-14.908 16.196-29.641 21.133-45.040 2.72-8.471 5.267-17.813 8.014-29.398 0.989-4.163 1.571-7.933 1.731-11.207 0.13-2.627 0.319-5.085 0.526-7.478-3.363-1.484-7.456-3.522-11.642-6.301-3.916-1.082-7.771-2.683-11.479-4.767-5.311-1.419-10.189-3.655-14.522-6.655l-7.013-2.733c-12.592 9.297-26.65 19.65-40.53 29.388-16.023 11.235-32.43 22.063-48.297 32.535l-1.070 0.705c-4.064 2.683-8.13 5.366-12.188 8.057-9.561 6.338-16.537 11.017-23.366 15.596l-0.566 0.379c-9.291 6.233-18.067 12.121-31.885 21.187 6.452-3.851 2.037-0.939-2.385 1.962l-11.157 6.87-0.47 0.303c-13.398 8.471-19.101 12.25-24.783 16.056l7.29-4.598c-10.718 7.1-21.334 7.297-25.866 7.381l-0.412 0.008c-4.503 0.206-9.454 0.823-14.695 1.477l-0.148 0.019c-3.036 0.379-6.176 0.771-9.477 1.111-0.635 0.126-4.295 0.48-7.963 0.805l-2.664 0.191-0.321 0.029c-8.617 0.758-16.755 1.474-24.103 2.955-2.382 0.504-5.119 0.793-7.923 0.794h-0.001c-8.828 0-17.205-2.902-24.905-8.628-7.022-3.673-13.475-7.798-19.735-11.799-6.075-3.884-11.812-7.553-16.424-9.684-8.616-3.981-23.424-7.833-31.037-8.079-3.309-0.084-6.914 0.652-11.001 2.307 3.031 3.251 6.068 6.73 8.988 10.308l0.299 0.377c4.070 3.328 7.321 6.953 9.918 11.058 5.827 6.417 11.845 12.966 17.165 18.756l1.762 1.918c2.412 2.626 3.69 3.144 6.308 3.364 14.583 1.231 28.596 3.617 42.15 5.924l3.912 0.666c5.751 0.972 11.618 1.74 17.836 2.554l0.402 0.053c2.811 0.369 5.706 0.748 8.596 1.15 11.306 1.57 23.315 3.331 37.792 5.541 2.899 0.442 6.294 0.742 9.888 1.059l-0.439 4.98zM521.603 350.583c0.957 1.437 2.147 3.376 3.284 5.35l0.312 0.588c2.558 4.535 4.457 8.784 5.807 12.988 1.539 4.731 2.323 9.15 2.397 13.507 0.133 5.622-1.093 10.935-3.543 15.364-1.459 2.627-3.569 5.075-6.107 7.084-1.7 1.309-3.597 2.36-5.795 3.214-3.249 2.827-6.363 4.859-9.792 6.394-4.056 1.814-8.327 2.734-12.693 2.734-0.97 0-1.887-0.044-2.893-0.139-0.803-0.084-1.633-0.206-2.473-0.363-0.193 2.080-0.578 3.988-1.144 5.817l0.054-0.201-0.070 0.224c-1.064 3.24-2.654 6.041-4.729 8.325-1.644 1.77-3.568 3.252-5.707 4.382l-0.116 0.056c-3.008 3.162-5.97 5.483-9.312 7.3-4.271 2.357-9.025 3.604-13.751 3.604-0.773 0-1.603-0.036-2.333-0.102-1.717-0.141-3.292-0.409-4.818-0.799l0.199 0.043c-0.050 0.3-0.099 0.536-0.157 0.77l0.015-0.071c-0.548 2.28-1.324 4.973-2.912 7.636-0.701 1.302-1.504 2.299-2.089 3.028l-0.063 0.079c-0.053 0.064-0.116 0.144-0.177 0.224l-0.014 0.020c-0.35 0.46-0.722 0.867-1.127 1.238l-0.007 0.006c-0.129 0.121-0.247 0.235-0.364 0.351l0.001-0.001c-0.611 0.597-1.535 1.499-2.798 2.319-1.687 1.214-3.633 2.173-5.948 2.93-0.874 0.707-1.938 1.521-3.020 2.311l-0.246 0.171c-0.122 0.088-0.273 0.189-0.426 0.284l-0.035 0.020-2.636 1.635c-0.701 0.433-1.76 1.087-3.067 1.632l-0.196 0.088c-1.626 0.739-3.651 1.658-6.085 2.217-2.625 0.77-5.044 0.899-7.178 1.013l-0.275 0.016c-0.135 0.008-0.292 0.012-0.451 0.012v0l-0.244-0.004c-0.916-0.020-1.854-0.085-2.796-0.194-0.179 2.268-0.582 4.365-1.191 6.374l0.055-0.212c-1.665 5.715-5.148 10.721-9.806 14.091-3.419 2.514-7.322 4.222-11.932 5.219-2.57 1.703-6.043 3.796-10.2 5.013-2.368 0.83-4.594 1.1-6.385 1.318l-0.606 0.073c-0.17 0.024-0.34 0.040-0.574 0.058-1 0.064-2.001 0.038-3.037-0.013-0.16-0.009-0.401-0.019-0.644-0.026l-0.050-0.001-0.391-0.019c-0.524-0.026-1.053-0.056-1.595-0.108-0.3-0.031-0.601-0.077-0.893-0.136l-1.263-0.254c-4.602-0.816-9.047-2.701-13.989-5.931-0.090-0.059-0.179-0.12-0.271-0.186l-2.46-1.74c-0.231-0.163-0.429-0.316-0.619-0.477l0.013 0.011-2.281-1.913c-1.106-0.909-2.024-1.791-2.944-2.689l-0.607-0.594c-0.691-0.663-1.346-1.321-1.986-1.994l-0.024-0.025-2.796-2.999-3.922-4.401-10.475-12.109c-3.883-4.429-8.907-10.417-13.327-17.471-2.729-4.38-4.662-8.252-6.083-12.183-0.943-2.541-1.634-5.092-2.054-7.58-0.531-3.010-0.678-5.944-0.436-8.72 0.252-3.11 0.932-6.091 2.020-8.863 1.111-2.749 2.453-5.122 4.056-7.289l-0.063 0.089c3.053-4.102 6.372-6.709 8.602-8.313 2.306-1.662 4.241-2.723 5.559-3.445l0.218-0.116c0.024-0.016 0.081-0.048 0.169-0.096l1.852-0.927c0.148-0.079 0.531-0.275 1.184-0.558l1.789-0.777c0.151-0.062 0.365-0.146 0.475-0.186 1.778-0.656 4.753-1.756 8.706-2.325 4.555-0.676 9.505-0.456 14.195 0.636 0.3 0.073 0.603 0.148 0.905 0.228 0.263-2.030 0.698-4.010 1.296-5.893 1.556-4.849 4.042-8.46 5.851-10.632 2.045-2.5 4.013-4.1 5.211-5.074l0.161-0.131c0.11-0.093 0.217-0.175 0.244-0.191 0.574-0.448 1.256-0.942 1.953-1.415l0.139-0.089 0.383-0.263c0.165-0.115 0.334-0.223 0.497-0.32l1.628-0.978c2.71-1.559 5.389-2.688 8.185-3.453 2.918-0.834 6.167-1.274 9.393-1.274 1.344 0 2.721 0.078 4.099 0.233 1.356 0.168 2.497 0.363 3.62 0.605l-0.267-0.048c0.029-0.137 0.060-0.271 0.090-0.401 1.096-5.055 3.349-8.933 5.047-11.298 1.886-2.592 3.623-4.358 4.741-5.376 1.053-1.001 1.735-1.546 1.909-1.682l0.553-0.453c0.309-0.255 0.885-0.73 1.583-1.22 1.189-0.865 3.664-2.667 7.202-4.214 2.721-1.175 7.071-2.574 12.344-2.574 0.528 0 1.060 0.016 1.43 0.036 3.289 0.128 6.65 0.771 10 1.91 0.723-2.426 1.642-4.531 2.779-6.496l-0.077 0.144c1.773-3.12 4.038-5.857 6.921-8.365 1.486-1.309 3.123-2.532 4.856-3.617l0.157-0.092c0.381-0.248 1.123-0.718 1.804-1.072l2.134-1.147c0.21-0.115 0.424-0.221 0.648-0.32l2.303-1.021c0.967-0.417 1.968-0.754 2.772-1.023l0.901-0.308c0.167-0.061 0.336-0.111 0.53-0.167 3.69-1.037 7.171-1.575 10.638-1.644 0.318-0.009 0.637-0.013 0.959-0.013 3.925 0 8.058 0.605 11.949 1.751 9.189 2.649 16.794 8.021 21.554 12.058 4.554 3.828 8.83 8.263 13.074 13.561 3.396 4.289 5.532 7.504 7.43 10.432zM459.434 345.478c-0.674 0.578-0.68 0.813-0.684 0.936l-0.011 0.238c-0.050 0.897 0.85 3.685 2.941 6.817 2.5 3.774 5.78 7.083 8.094 9.197 0.496 0.461 0.972 0.872 1.495 1.326l0.171 0.147c0.536 0.464 1.099 0.951 1.734 1.523 1.335 1.219 2.571 2.423 3.766 3.668l0.025 0.026c2.070 2.16 3.722 4.081 5.374 6.022l2.657 3.166c1.352 1.614 2.421 2.89 3.27 3.857 4.301 4.961 7.574 8.302 10.584 9.623 1.339 0.543 2.808 0.813 4.489 0.823l-0.003 0.5 0.090-0.5c1.317 0 2.839-0.168 4.528-0.5 0.141-0.377 0.153-0.56 0.153-0.563 0.077-1.207-0.173-2.603-0.81-4.526-0.667-2.036-1.621-4.298-3.004-7.117-1.317-2.708-2.905-5.661-4.854-9.031-1.146-1.989-2.060-3.462-3.008-4.909l0.245 0.399c-1.465-2.234-3.236-4.88-5.722-8.009-2.986-3.702-6.031-6.865-9.055-9.402-3.576-3.050-7.461-5.322-10.666-6.237-1.271-0.376-2.526-0.574-3.623-0.574l-0.308 0.004c-0.87 0.015-1.775 0.149-2.806 0.409-0.010 0.015-0.265 0.103-0.522 0.189l-0.247 0.071-1.224 0.494-1.474 0.773-0.206 0.135c-0.527 0.335-0.924 0.608-1.389 1.025zM466.312 420.765c-0.228-1.262-0.765-2.67-1.779-4.668-2.428-4.727-5.787-9.775-10.080-15.896l-0.681-0.937c-1.616-2.239-4.059-5.622-9.112-11.322l-2.571-2.826-2.757-3.115c-1.562-1.771-3.631-4.088-5.79-6.307-5.542-5.7-9.35-8.158-11.574-9.22-1.106-0.544-2.183-0.863-3.028-0.899l-0.1-0.004c-0.073 0-0.208 0-0.582 0.146-0.435 0.203-0.83 0.47-1.502 0.956l-0.155 0.105c-0.037 0.034-0.077 0.067-0.117 0.1l-0.005 0.003-0.523 0.423c-0.090 0.079-0.171 0.154-0.251 0.231l0.002-0.002c-0.102 0.099-0.21 0.2-0.319 0.298l-0.011 0.010-0.001 0.001c-0.25 0.248-0.479 0.516-0.686 0.801l-0.013 0.019c-0.186 0.264-0.362 0.513-0.067 1.721 0.579 2.43 2.711 6.128 5.852 10.147 3.23 4.149 6.966 8.038 10.194 11.296 4.47 4.521 7.762 8.352 10.407 11.429l1.104 1.283c3.015 3.524 4.724 5.486 5.901 6.774 4.778 5.282 8.069 8.558 10.736 9.664 0.080 0.031 0.16 0.066 0.278 0.118 0.411 0.177 1.17 0.389 2.452 0.389 1.361 0.001 3.005-0.247 4.778-0.718zM325.251 423.709c-1.3 0.929-1.831 1.585-1.959 1.76-0.349 0.485-0.362 0.682-0.377 0.898l-0.016 0.19c-0.1 1.070 0.798 5.006 4.21 10.346 3.288 5.242 7.356 10.074 10.536 13.701l10.418 12.086 3.448 3.901 2.452 2.669c4.949 5.2 8.717 9.021 12.22 10.873l0.463 0.269 0.225 0.087c0.369 0.139 0.737 0.293 1.071 0.436l1.025 0.297c0.854 0.23 1.104 0.275 1.156 0.28 0.333 0.016 0.667 0.053 0.966 0.101 1.019 0.161 2.692 0.153 4.791-0.025 1.254-1.174 1.902-2.117 2.226-2.709 0.481-0.873 0.688-1.698 0.67-2.669-0.101-3.103-1.605-7.386-4.73-13.472l-0.236-0.439c-1.22-2.262-3.063-5.681-7.915-12.132-1.848-2.429-3.504-4.473-5.216-6.468l0.159 0.189c-1.207-1.415-2.229-2.577-3.265-3.726l0.138 0.156-3.794-4.163-0.666-0.747c-2.247-2.517-4.368-4.895-6.525-7.003-2.453-2.401-4.608-4.186-6.595-5.458-1.635-1.073-3.394-1.889-4.819-2.235-1.125-0.259-2.151-0.313-3.174-0.172-0.737 0.102-1.461 0.348-2.218 0.616l-2.177 1.027-0.213-0.452 0.115 0.507c-0.724 0.403-1.544 0.861-2.394 1.481zM422.882 443.264c-1.457-4.21-3.849-9.037-7.998-16.14-1.158-1.972-2.089-3.443-3.054-4.889l0.238 0.379c-1.537-2.313-3.31-4.894-5.853-8.090-0.754-0.945-1.415-1.735-2.093-2.51l0.072 0.084c-0.327-0.375-0.658-0.735-0.983-1.084l-1.544-1.637c-1.752-1.871-3.932-4.2-6.204-6.4-4.667-4.544-9.051-7.857-12.683-9.583-2.040-1-3.585-1.284-4.143-1.358-0.791-0.084-1.471-0.046-2.142 0.14-0.46 0.129-0.862 0.301-1.234 0.519l0.024-0.013-0.768 0.46c-0.041 0.029-0.080 0.058-0.096 0.065l-0.104 0.070c-0.032 0.021-0.15 0.103-0.308 0.218l-0.125 0.105c-0.338 0.281-0.63 0.524-0.813 0.753-0.391 0.479-0.491 0.777-0.492 0.778-0.21 0.696-0.264 1.472-0.167 2.446 0.244 2.8 1.886 6.949 4.393 11.102 2.257 3.763 5.211 7.712 8.775 11.732l4.717 5.157 6.164 6.875c2.792 3.155 4.679 5.241 5.937 6.563l0.228 0.238c2.471 2.581 4.604 4.811 6.372 6.18 1.462 1.149 2.709 1.886 4.001 2.375 1.206 0.335 2.68 0.506 4.381 0.506 1.841 0 3.926-0.199 6.201-0.592 0.018-0.040 0.031-0.073 0.040-0.1l0.020-0.292c0.091-0.978-0.144-2.231-0.759-4.057z" />
<glyph unicode="&#xe910;" glyph-name="zh_01" d="M1017.6 486.4l-492.8 390.4c-6.4 6.4-19.2 6.4-32 0l-486.4-390.4c-6.4-6.4-6.4-19.2-6.4-32 6.4-6.4 12.8-19.2 25.6-19.2h134.4v-416h243.2v147.2h198.4v-147.2h243.2v416h153.6c12.8 0 19.2 12.8 25.6 19.2 0 12.8 0 25.6-6.4 32zM800 64h-147.2v147.2h-294.4v-147.2h-147.2v384c0 6.4 6.4 6.4 6.4 12.8 0 0 0 0 0 0l294.4 236.8 294.4-236.8v-396.8zM844.8 486.4l-339.2 275.2-345.6-275.2h-64l416 332.8 416-332.8h-83.2z" />
<glyph unicode="&#xe911;" glyph-name="zh_02" d="M512-64c-282.766 0-512 229.234-512 512s229.234 512 512 512c282.766 0 512-229.234 512-512s-229.234-512-512-512zM512 903.111c-251.335 0-455.111-203.748-455.111-455.111s203.776-455.111 455.111-455.111c251.364 0 455.111 203.748 455.111 455.111s-203.748 455.111-455.111 455.111zM853.333 248.889h-56.889c0 78.535-63.687 142.222-142.222 142.222-78.564 0-142.222-63.687-142.222-142.222h-56.889c0 76.857 43.605 143.417 107.349 176.612-30.606 26.084-50.46 64.455-50.46 107.833 0 78.535 63.659 142.222 142.222 142.222 78.535 0 142.222-63.687 142.222-142.222 0-43.378-19.826-81.749-50.46-107.833 63.744-33.195 107.349-99.755 107.349-176.612zM654.222 618.667c-47.132 0-85.333-38.201-85.333-85.333s38.201-85.333 85.333-85.333c47.132 0 85.333 38.201 85.333 85.333s-38.201 85.333-85.333 85.333zM199.111 448h256v-56.889h-256v56.889zM199.111 590.222h256v-56.889h-256v56.889zM398.222 248.889h-199.111v56.889h199.111v-56.889z" />
<glyph unicode="&#xe912;" glyph-name="zh_03" d="M902.5 58.1h-781c-31.6 0-57.2 25.7-57.2 57.2v665.4c0 31.6 25.7 57.2 57.2 57.2h781c31.6 0 57.2-25.7 57.2-57.2v-665.4c0-31.6-25.6-57.2-57.2-57.2zM121.5 780.7v-665.4h781v665.4h-781zM941.9 700.6c-7.9 13.8-25.7 18.5-39.5 10.6l-386-222.9-386 222.9c-13.8 7.9-31.5 3.2-39.5-10.6-7.9-13.8-3.2-31.5 10.6-39.5l400.5-231.3c0.2-0.1 0.5-0.2 0.7-0.3 1-0.5 2-0.9 3-1.4 0.8-0.3 1.6-0.7 2.4-0.9 0.9-0.3 1.8-0.4 2.7-0.6s1.9-0.4 2.8-0.5c0.9-0.1 1.8-0.1 2.8-0.1 0.9 0 1.8 0 2.8 0.1 0.9 0.1 1.9 0.3 2.8 0.5s1.8 0.3 2.7 0.6c0.8 0.2 1.6 0.6 2.4 0.9 1 0.4 2 0.8 3 1.4 0.2 0.1 0.5 0.2 0.7 0.3l400.5 231.2c13.8 8 18.6 25.8 10.6 39.6zM433 492.3l-296.2-422.9c-0.6-0.9-1.9-1.1-2.8-0.5l-44 30.9c-0.9 0.6-1.1 1.9-0.5 2.8l296.1 422.9c0.6 0.9 1.9 1.1 2.8 0.5l44.1-30.9c0.9-0.6 1.1-1.9 0.5-2.8zM597.9 492.3l296.1-422.9c0.6-0.9 1.9-1.1 2.8-0.5l44.1 30.9c0.9 0.6 1.1 1.9 0.5 2.8l-296.2 422.9c-0.6 0.9-1.9 1.1-2.8 0.5l-44.1-30.9c-0.8-0.6-1.1-1.9-0.4-2.8z" />
<glyph unicode="&#xe913;" glyph-name="zh_04" d="M608 275.2c-158.4 0-286.4 128-286.4 286.4s128 286.4 286.4 286.4 286.4-128 286.4-286.4-128-286.4-286.4-286.4zM608 784c-123.2 0-222.4-99.2-222.4-222.4s99.2-222.4 222.4-222.4 222.4 99.2 222.4 222.4-99.2 222.4-222.4 222.4zM289.6 315.2c-3.2 0-6.4 0-9.6 1.6-94.4 32-158.4 120-158.4 219.2 0 83.2 44.8 160 116.8 201.6 16 8 35.2 3.2 43.2-12.8s3.2-35.2-12.8-43.2c-52.8-30.4-84.8-84.8-84.8-145.6 0-72 46.4-136 113.6-158.4 16-4.8 25.6-24 20.8-40-3.2-12.8-16-22.4-28.8-22.4zM936 48c-8 0-17.6 3.2-24 9.6-80 84.8-188.8 131.2-305.6 131.2s-225.6-46.4-305.6-131.2c-12.8-12.8-32-12.8-44.8-1.6s-12.8 32-1.6 44.8c92.8 97.6 217.6 152 352 152s259.2-54.4 352-152c12.8-12.8 11.2-33.6-1.6-44.8-4.8-4.8-12.8-8-20.8-8zM94.4 128c-8 0-16 3.2-22.4 8-12.8 12.8-12.8 32-1.6 44.8 60.8 64 142.4 105.6 230.4 116.8 17.6 1.6 33.6-9.6 35.2-27.2s-9.6-33.6-27.2-35.2c-73.6-9.6-140.8-44.8-192-97.6-4.8-6.4-12.8-9.6-22.4-9.6z" />
<glyph unicode="&#xe914;" glyph-name="zh_05" d="M741.834-62.094h-459.669c-67.698 0-122.582 55.342-122.582 123.638v741.842c0 68.298 54.883 123.638 122.582 123.638h459.669c67.698 0 122.583-55.342 122.583-123.638v-741.842c0-68.298-54.884-123.638-122.583-123.638v0zM803.114 803.386c0 34.127-27.439 61.82-61.281 61.82h-459.669c-33.841 0-61.29-27.693-61.29-61.82v-30.912h582.239v30.912zM803.114 710.653h-582.239v-493.597h582.239v493.597zM803.114 155.236h-582.239v-93.693c0-34.149 27.45-61.82 61.29-61.82h459.669c33.842 0 61.281 27.67 61.281 61.82v93.693zM512.004 30.633c-25.378 0-45.958 20.755-45.958 46.367s20.579 46.367 45.958 46.367c25.374 0 45.949-20.755 45.949-46.367s-20.577-46.367-45.949-46.367v0z" />
<glyph unicode="&#xe915;" glyph-name="comment" d="M847.36 852.48h-665.6c-69.12 0-125.44-56.32-125.44-125.44v-401.92c0-69.12 56.32-125.44 125.44-125.44h38.4l15.36-181.76 158.72 181.76h453.12c69.12 0 125.44 56.32 125.44 125.44v401.92c0 69.12-56.32 125.44-125.44 125.44zM284.16 476.16c-33.28 0-61.44 28.16-61.44 61.44s28.16 61.44 61.44 61.44c33.28 0 61.44-28.16 61.44-61.44 2.56-33.28-25.6-61.44-61.44-61.44zM514.56 476.16c-33.28 0-61.44 28.16-61.44 61.44s28.16 61.44 61.44 61.44c33.28 0 61.44-28.16 61.44-61.44s-28.16-61.44-61.44-61.44zM742.4 476.16c-33.28 0-61.44 28.16-61.44 61.44s28.16 61.44 61.44 61.44c33.28 0 61.44-28.16 61.44-61.44 2.56-33.28-25.6-61.44-61.44-61.44z" />
<glyph unicode="&#xe916;" glyph-name="concern2" d="M545.651 226.844c-33.891-30.031-66.608-59.026-95.184-87.438-29.958 29.792-64.149 59.854-99.599 90.967-97.318 85.427-207.604 182.251-207.058 261.814 0.75 106.801 47.545 170.561 125.231 170.561 50.579 0 100.379-27.528 129.945-71.834l52.381-78.479 50.609 79.649c19.722 30.943 51.201 53.978 86.041 64.575v63.472c-54.354-11.451-105.817-44.589-137.906-95.086-42.329 63.429-112.988 99.178-181.070 99.178-95.244 0-185.568-69.88-186.677-231.601-1.114-160.337 262.592-312.965 368.165-444.262 100.523 125.942 366.636 285.595 367.325 444.35h-61.554c-0.506-79.564-116.958-182.781-210.649-265.866v0zM756.523 538.675c-4.429 0-8.844 1.641-12.212 4.936l-101.541 99.091c-6.745 6.588-14.998 29.196-1.662 43.642 15.991 17.322 37.707 8.257 44.452 1.667l73.345-74.047 157.806 155.728c6.747 6.589 29.916 15.156 43.463 1.294 13.212-13.519 1.686-38.921-5.060-45.51l-186.377-181.865c-3.379-3.295-7.797-4.936-12.214-4.936v0 0z" />
<glyph unicode="&#xe917;" glyph-name="eye" d="M511.4 181.3c-136.5 0-269.2 80.6-394.6 239.8l-13.1 16.7 11.4 17.9c1.6 2.6 40.5 63.4 107.1 125.5 39.4 36.8 80.5 66.4 122.1 88.1 53.1 27.7 107.1 42.4 160.6 43.9 140.4 3.8 274.3-82.4 398-256.2l11.8-16.6-11.1-17.1c-1.5-2.4-38.3-58.5-102.3-116.3-37.8-34.2-77.5-61.9-117.8-82.4-51.3-26.1-103.9-40.5-156.2-42.9-5.3-0.3-10.6-0.4-15.9-0.4zM177.8 440.9c113.2-137.5 229.6-204.5 346.5-199.3 99.5 4.4 183.1 61.6 235.6 108.8 38.6 34.7 66.8 69.3 81.6 89-107.6 144.9-220.2 216.8-334.8 213.8-101-2.6-187.6-63.9-242.5-114.9-40.9-37.9-70.8-76-86.4-97.4zM509.5 318.4c-70.6 0-128.1 57.5-128.1 128.1s57.5 128.1 128.1 128.1 128.1-57.5 128.1-128.1-57.5-128.1-128.1-128.1zM509.5 514.6c-37.6 0-68.1-30.5-68.1-68.1s30.5-68.1 68.1-68.1 68.1 30.5 68.1 68.1c0 37.6-30.5 68.1-68.1 68.1z" />
<glyph unicode="&#xe918;" glyph-name="jf" d="M1010.688 582.144l-1.024 4.096-155.648 256c-10.24 24.576-33.792 39.936-60.416 39.936h-557.056c-26.624 0-50.176-16.384-60.416-39.936l-155.648-256v-4.096c-8.192-25.6 0-52.224 19.456-69.632l434.176-517.12 4.096-3.072c11.264-8.192 24.576-12.288 37.888-12.288s26.624 4.096 37.888 12.288l4.096 3.072 434.176 517.12c18.432 16.384 26.624 44.032 18.432 69.632zM515.072 60.928l-421.888 501.76 149.504 245.76h544.768l149.504-245.76-421.888-501.76zM659.456 605.696h-71.68c15.36 5.12 29.696 14.336 44.032 28.672 34.816 34.816 43.008 80.896 19.456 104.448s-69.632 15.36-104.448-19.456c-15.36-15.36-25.6-33.792-29.696-51.2-4.096 17.408-14.336 34.816-29.696 51.2-34.816 34.816-80.896 43.008-104.448 19.456s-15.36-69.632 19.456-104.448c13.312-13.312 28.672-22.528 44.032-28.672h-73.728c-15.36 0-27.648-12.288-27.648-27.648v-81.92c0-15.36 12.288-27.648 27.648-27.648h109.568c15.36 0 27.648 12.288 27.648 27.648v81.92c0 12.288-8.192 22.528-18.432 25.6 6.144 2.048 12.288 6.144 16.384 10.24 5.12 5.12 8.192 11.264 11.264 18.432 2.048-7.168 5.12-13.312 11.264-18.432 4.096-4.096 9.216-8.192 15.36-10.24-11.264-3.072-20.48-13.312-20.48-26.624v-81.92c0-15.36 12.288-27.648 27.648-27.648h109.568c15.36 0 27.648 12.288 27.648 27.648v81.92c-3.072 16.384-15.36 28.672-30.72 28.672zM486.4 634.368c-7.168-7.168-19.456-6.144-25.6-4.096-13.312 3.072-27.648 11.264-39.936 23.552s-20.48 26.624-23.552 39.936c-1.024 6.144-3.072 18.432 4.096 25.6 4.096 4.096 10.24 5.12 15.36 5.12 4.096 0 7.168-1.024 10.24-1.024 13.312-3.072 27.648-11.264 39.936-23.552s20.48-26.624 23.552-39.936c1.024-6.144 3.072-18.432-4.096-25.6zM566.272 699.904c12.288 12.288 26.624 20.48 39.936 23.552 3.072 1.024 6.144 1.024 10.24 1.024 5.12 0 11.264-1.024 15.36-5.12 11.264-11.264 5.12-39.936-19.456-65.536-24.576-24.576-54.272-29.696-65.536-19.456-10.24 11.264-5.12 39.936 19.456 65.536zM659.456 456.192h-109.568c-15.36 0-27.648-12.288-27.648-27.648v-81.92c0-15.36 12.288-27.648 27.648-27.648h109.568c15.36 0 27.648 12.288 27.648 27.648v81.92c0 16.384-12.288 27.648-27.648 27.648zM480.256 456.192h-109.568c-15.36 0-27.648-12.288-27.648-27.648v-81.92c0-15.36 12.288-27.648 27.648-27.648h109.568c15.36 0 27.648 12.288 27.648 27.648v81.92c0 16.384-12.288 27.648-27.648 27.648z" />
<glyph unicode="&#xe919;" glyph-name="out" d="M512 896c-17.673 0-32-14.327-32-32v0-416c0-17.673 14.327-32 32-32s32 14.327 32 32v0 416c0 17.673-14.327 32-32 32v0zM683.34 862.060c-3.617 1.538-7.824 2.433-12.24 2.433-17.677 0-32.008-14.33-32.008-32.008 0-13.261 8.065-24.639 19.558-29.496l0.21-0.079c139.21-57.67 237.14-194.85 237.14-354.91 0-212.080-171.92-384-384-384s-384 171.92-384 384c0 160.060 97.93 297.24 237.14 354.91 11.703 4.936 19.768 16.314 19.768 29.575 0 17.677-14.33 32.008-32.008 32.008-4.416 0-8.623-0.894-12.45-2.512l0.21 0.079c-162.41-67.28-276.66-227.32-276.66-414.060 0-247.42 200.58-448 448-448s448 200.58 448 448c0 186.74-114.25 346.78-276.66 414.060z" />
<glyph unicode="&#xe91a;" glyph-name="search" d="M1009.856 17.6l-190.4 187.2c160 180.8 148.8 454.4-24 620.8-182.4 179.2-475.2 179.2-659.2 0-177.6-172.8-182.4-457.6-9.6-635.2l9.6-9.6c166.4-160 425.6-177.6 611.2-40l192-188.8c8-9.6 20.8-14.4 33.6-16 12.8 0 25.6 4.8 35.2 14.4 19.2 17.6 20.8 48 1.6 67.2zM97.856 504c3.2 200 168 360 369.6 358.4 200 1.6 363.2-158.4 368-358.4-3.2-200-168-360-368-358.4-201.6-3.2-366.4 156.8-369.6 358.4z" />
<glyph unicode="&#xe91b;" glyph-name="yx" d="M115.4 672.9c0-103.774 84.126-187.9 187.9-187.9s187.9 84.126 187.9 187.9v0c0 103.774-84.126 187.9-187.9 187.9s-187.9-84.126-187.9-187.9v0zM875 31.7h-263.7c-29.3 0-53 23.7-53 53v263.7c0 29.3 23.7 53 53 53h263.7c29.3 0 53-23.7 53-53v-263.7c0-29.3-23.7-53-53-53zM604.5 534.3c-28.7 28.7-28.7 75.3 0 104l173.2 173.2c28.7 28.7 75.3 28.7 104 0s28.7-75.3 0-104l-173.2-173.2c-28.7-28.7-75.2-28.7-104 0zM303.3 403.8h143.3c47.6 0 77.4-51.6 53.6-92.8l-143.4-248.2c-23.8-41.3-83.4-41.3-107.2 0l-71.6 124-71.6 124.2c-23.8 41.3 6 92.8 53.6 92.8h143.3z" />
<glyph unicode="&#xe91c;" glyph-name="fs" d="M64.004 778.193h109.456v-109.456h-109.456v109.456zM611.282 668.737h-328.368v109.456h328.368l36.485-54.727zM793.708 395.099h-510.794v109.455h510.794l36.485-54.727zM921.406 121.46h-638.492v109.455h638.492l36.485-54.727zM64.004 504.554h109.456v-109.456h-109.456v109.456zM64.004 230.915h109.456v-109.456h-109.456v109.456z" />
<glyph unicode="&#xe91d;" glyph-name="loginClose" d="M877 100.8l-710.8 710.8c-14.4 14.4-14.4 37.8 0 52.2s37.8 14.4 52.2 0l710.8-710.8c14.4-14.4 14.4-37.8 0-52.2-14.3-14.4-37.8-14.4-52.2 0zM166.2 153l710.8 710.8c14.4 14.4 37.8 14.4 52.2 0s14.4-37.8 0-52.2l-710.8-710.8c-14.4-14.4-37.8-14.4-52.2 0-14.3 14.3-14.3 37.8 0 52.2z" />
</font>
</defs>
</svg>
